<svg xmlns="http://www.w3.org/2000/svg" width="100%" height="100%" viewBox="0 0 288 192" fill="none">
<path d="M212.098 100.209H90.5048C89.8301 100.209 89.1838 99.9418 88.7077 99.4684C88.2318 98.9952 87.9647 98.3544 87.9638 97.6866V23.14C87.9644 22.693 88.1432 22.2637 88.4622 21.9465C88.7813 21.6292 89.2147 21.4501 89.6674 21.4495H212.896C213.359 21.4501 213.803 21.6334 214.129 21.9581C214.456 22.2827 214.639 22.7221 214.639 23.1797V97.6863C214.638 98.3542 214.371 98.9951 213.895 99.4684C213.419 99.9418 212.773 100.209 212.098 100.209Z" fill="white" stroke="#CBCDD2" stroke-width="1.18081" class="cds-stroke-neutral-3"/>
<path d="M215.186 22.9613H87.3295V21.3766C87.3307 20.5486 87.6622 19.7548 88.2513 19.1695C88.8404 18.5842 89.6389 18.2551 90.4717 18.2544H212.044C212.877 18.2551 213.675 18.5842 214.264 19.1695C214.853 19.7548 215.185 20.5486 215.186 21.3766V22.9613Z" fill="#54585F" class="cds-fill-neutral-7"/>
<path d="M91.1573 21.6373C91.7292 21.6373 92.1927 21.1764 92.1927 20.6078C92.1927 20.0393 91.7292 19.5784 91.1573 19.5784C90.5855 19.5784 90.1219 20.0393 90.1219 20.6078C90.1219 21.1764 90.5855 21.6373 91.1573 21.6373Z" fill="white"/>
<path d="M95.0875 21.6373C95.6594 21.6373 96.1229 21.1764 96.1229 20.6078C96.1229 20.0393 95.6594 19.5784 95.0875 19.5784C94.5157 19.5784 94.0522 20.0393 94.0522 20.6078C94.0522 21.1764 94.5157 21.6373 95.0875 21.6373Z" fill="white"/>
<path d="M99.0176 21.6373C99.5894 21.6373 100.053 21.1764 100.053 20.6078C100.053 20.0393 99.5894 19.5784 99.0176 19.5784C98.4458 19.5784 97.9822 20.0393 97.9822 20.6078C97.9822 21.1764 98.4458 21.6373 99.0176 21.6373Z" fill="white"/>
<path d="M104.145 45.6761C105.623 45.6761 106.822 44.4847 106.822 43.0149C106.822 41.5452 105.623 40.3538 104.145 40.3538C102.667 40.3538 101.468 41.5452 101.468 43.0149C101.468 44.4847 102.667 45.6761 104.145 45.6761Z" fill="#93C1EF" class="cds-fill-primary-3"/>
<path d="M104.145 55.7516C105.623 55.7516 106.822 54.5601 106.822 53.0904C106.822 51.6206 105.623 50.4292 104.145 50.4292C102.667 50.4292 101.468 51.6206 101.468 53.0904C101.468 54.5601 102.667 55.7516 104.145 55.7516Z" fill="#93C1EF" class="cds-fill-primary-3"/>
<path d="M104.145 65.8268C105.623 65.8268 106.822 64.6353 106.822 63.1656C106.822 61.6958 105.623 60.5044 104.145 60.5044C102.667 60.5044 101.468 61.6958 101.468 63.1656C101.468 64.6353 102.667 65.8268 104.145 65.8268Z" fill="#93C1EF" class="cds-fill-primary-3"/>
<path d="M104.145 75.9027C105.623 75.9027 106.822 74.7112 106.822 73.2415C106.822 71.7718 105.623 70.5803 104.145 70.5803C102.667 70.5803 101.468 71.7718 101.468 73.2415C101.468 74.7112 102.667 75.9027 104.145 75.9027Z" fill="#93C1EF" class="cds-fill-primary-3"/>
<path d="M199.603 43.3111H111.574C111.495 43.3111 111.42 43.28 111.364 43.2245C111.308 43.169 111.277 43.0938 111.277 43.0154C111.277 42.937 111.308 42.8618 111.364 42.8063C111.42 42.7509 111.495 42.7197 111.574 42.7197H199.603C199.682 42.7197 199.757 42.7509 199.813 42.8063C199.869 42.8618 199.9 42.937 199.9 43.0154C199.9 43.0938 199.869 43.169 199.813 43.2245C199.757 43.28 199.682 43.3111 199.603 43.3111Z" fill="#93C1EF" class="cds-fill-primary-3"/>
<path d="M199.603 53.3646H111.574C111.495 53.3646 111.42 53.3334 111.364 53.278C111.308 53.2225 111.277 53.1473 111.277 53.0689C111.277 52.9905 111.308 52.9153 111.364 52.8598C111.42 52.8044 111.495 52.7732 111.574 52.7732H199.603C199.682 52.7732 199.757 52.8044 199.813 52.8598C199.869 52.9153 199.9 52.9905 199.9 53.0689C199.9 53.1473 199.869 53.2225 199.813 53.278C199.757 53.3334 199.682 53.3646 199.603 53.3646Z" fill="#93C1EF" class="cds-fill-primary-3"/>
<path d="M199.603 63.4178H111.574C111.495 63.4178 111.42 63.3866 111.364 63.3312C111.308 63.2757 111.277 63.2005 111.277 63.1221C111.277 63.0437 111.308 62.9685 111.364 62.913C111.42 62.8576 111.495 62.8264 111.574 62.8264H199.603C199.682 62.8264 199.757 62.8576 199.813 62.913C199.869 62.9685 199.9 63.0437 199.9 63.1221C199.9 63.2005 199.869 63.2757 199.813 63.3312C199.757 63.3866 199.682 63.4178 199.603 63.4178Z" fill="#93C1EF" class="cds-fill-primary-3"/>
<path d="M199.603 73.471H111.574C111.495 73.471 111.42 73.4399 111.364 73.3844C111.308 73.329 111.277 73.2537 111.277 73.1753C111.277 73.0969 111.308 73.0217 111.364 72.9662C111.42 72.9108 111.495 72.8796 111.574 72.8796H199.603C199.682 72.8796 199.757 72.9108 199.813 72.9662C199.869 73.0217 199.9 73.0969 199.9 73.1753C199.9 73.2537 199.869 73.329 199.813 73.3844C199.757 73.4399 199.682 73.471 199.603 73.471Z" fill="#93C1EF" class="cds-fill-primary-3"/>
<path d="M128.229 83.5246H119.604C119.21 83.5242 118.832 83.3683 118.553 83.0911C118.274 82.8139 118.118 82.4382 118.117 82.0462V74.0627C118.118 73.6707 118.274 73.2949 118.553 73.0178C118.832 72.7406 119.21 72.5847 119.604 72.5842H128.229C128.623 72.5847 129.001 72.7406 129.279 73.0178C129.558 73.2949 129.715 73.6707 129.715 74.0627V82.0462C129.715 82.4382 129.558 82.8139 129.279 83.0911C129.001 83.3683 128.623 83.5242 128.229 83.5246Z" fill="#006CD6" class="cds-fill-primary-5"/>
<path d="M147.559 83.5243H138.934C138.54 83.5238 138.162 83.3679 137.884 83.0907C137.605 82.8136 137.448 82.4378 137.448 82.0458V64.009C137.448 63.617 137.605 63.2412 137.884 62.964C138.162 62.6869 138.54 62.531 138.934 62.5305H147.559C147.953 62.531 148.331 62.6869 148.61 62.964C148.889 63.2412 149.045 63.617 149.046 64.009V82.0458C149.045 82.4378 148.889 82.8136 148.61 83.0907C148.331 83.3679 147.953 83.5238 147.559 83.5243Z" fill="#006CD6" class="cds-fill-primary-5"/>
<path d="M167.187 83.5244H158.563C158.168 83.5239 157.79 83.368 157.512 83.0909C157.233 82.8137 157.076 82.4379 157.076 82.046V53.9557C157.076 53.5638 157.233 53.188 157.512 52.9108C157.79 52.6337 158.168 52.4777 158.563 52.4773H167.187C167.581 52.4777 167.959 52.6337 168.238 52.9108C168.517 53.188 168.673 53.5638 168.674 53.9557V82.046C168.673 82.4379 168.517 82.8137 168.238 83.0909C167.959 83.368 167.581 83.5239 167.187 83.5244Z" fill="#006CD6" class="cds-fill-primary-5"/>
<path d="M187.41 83.5245H178.785C178.391 83.524 178.013 83.3681 177.735 83.091C177.456 82.8138 177.299 82.438 177.299 82.046V44.1982C177.299 43.8062 177.456 43.4304 177.735 43.1532C178.013 42.8761 178.391 42.7202 178.785 42.7197H187.41C187.804 42.7202 188.182 42.8761 188.461 43.1532C188.74 43.4304 188.896 43.8062 188.897 44.1982V82.046C188.896 82.438 188.74 82.8138 188.461 83.091C188.182 83.3681 187.804 83.524 187.41 83.5245Z" fill="#006CD6" class="cds-fill-primary-5"/>
<path d="M199.603 83.5242H111.574C111.495 83.5242 111.42 83.4931 111.364 83.4376C111.308 83.3822 111.277 83.307 111.277 83.2285C111.277 83.1501 111.308 83.0749 111.364 83.0195C111.42 82.964 111.495 82.9329 111.574 82.9329H199.603C199.682 82.9329 199.757 82.964 199.813 83.0195C199.869 83.0749 199.9 83.1501 199.9 83.2285C199.9 83.307 199.869 83.3822 199.813 83.4376C199.757 83.4931 199.682 83.5242 199.603 83.5242Z" fill="#93C1EF" class="cds-fill-primary-3"/>
<rect x="231.915" y="92.5688" width="5.21143" height="6.41373" fill="#FDDADA" class="cds-fill-danger-2"/>
<path d="M206.424 121.206C206.639 120.884 206.922 120.612 207.253 120.41C207.585 120.207 207.957 120.08 208.343 120.036C208.729 119.993 209.121 120.034 209.489 120.157C209.858 120.279 210.195 120.481 210.477 120.748L218.877 116.438L218.354 121.294L210.458 124.642C209.976 125.083 209.349 125.333 208.694 125.345C208.04 125.357 207.403 125.129 206.906 124.706C206.409 124.282 206.085 123.692 205.997 123.047C205.908 122.402 206.06 121.747 206.424 121.206Z" fill="#FDDADA" class="cds-fill-danger-2"/>
<path d="M213.652 123.018C213.461 122.869 213.321 122.666 213.249 122.436L212.581 120.29C212.509 120.058 212.511 119.809 212.586 119.578C212.661 119.346 212.806 119.143 213 118.996L219.809 113.883L227.182 100.283C227.491 99.8873 227.875 99.5562 228.313 99.3083C228.75 99.0605 229.233 98.9007 229.732 98.8382C230.232 98.7757 230.739 98.8116 231.225 98.944C231.71 99.0763 232.165 99.3025 232.563 99.6096C232.961 99.9167 233.294 100.299 233.543 100.734C233.792 101.169 233.953 101.648 234.016 102.145C234.079 102.642 234.042 103.146 233.909 103.629C233.776 104.112 233.549 104.564 233.24 104.959L229.045 113.762C227.772 116.434 225.566 118.555 222.838 119.731L214.86 123.172C214.706 123.238 214.54 123.272 214.373 123.27C214.206 123.268 214.041 123.231 213.889 123.162C213.805 123.123 213.725 123.075 213.652 123.018Z" fill="#3C3F44" class="cds-fill-neutral-8"/>
<path d="M233.425 94.6067C237.013 94.6067 239.922 91.7146 239.922 88.1471C239.922 84.5796 237.013 81.6875 233.425 81.6875C229.837 81.6875 226.928 84.5796 226.928 88.1471C226.928 91.7146 229.837 94.6067 233.425 94.6067Z" fill="#FDDADA" class="cds-fill-danger-2"/>
<path d="M230.79 172.885L227.547 172.885L226.004 160.448L230.791 160.448L230.79 172.885Z" fill="#FDDADA" class="cds-fill-danger-2"/>
<path d="M225.23 171.964H231.484V175.879H221.292C221.292 175.365 221.394 174.856 221.592 174.381C221.79 173.906 222.08 173.474 222.446 173.11C222.811 172.747 223.245 172.458 223.723 172.262C224.201 172.065 224.713 171.964 225.23 171.964Z" fill="#3C3F44" class="cds-fill-neutral-8"/>
<path d="M241.37 172.885L238.128 172.885L236.585 160.448L241.372 160.449L241.37 172.885Z" fill="#FDDADA" class="cds-fill-danger-2"/>
<path d="M235.811 171.964H242.065V175.879H231.873C231.873 175.365 231.975 174.856 232.173 174.381C232.371 173.906 232.661 173.474 233.026 173.111C233.392 172.747 233.826 172.459 234.304 172.262C234.782 172.065 235.294 171.964 235.811 171.964Z" fill="#3C3F44" class="cds-fill-neutral-8"/>
<path d="M241.607 169.73L237.807 169.73C237.545 169.729 237.291 169.643 237.083 169.485C236.876 169.327 236.726 169.105 236.658 168.854L231.188 148.682C231.179 148.65 231.159 148.623 231.132 148.605C231.104 148.588 231.071 148.581 231.039 148.586C231.006 148.591 230.977 148.608 230.957 148.634C230.936 148.659 230.926 148.691 230.928 148.724L232.033 167.855C232.043 168.024 232.016 168.193 231.954 168.351C231.892 168.509 231.797 168.652 231.675 168.771C231.553 168.889 231.407 168.98 231.247 169.037C231.086 169.094 230.915 169.116 230.746 169.102L226.474 168.748C226.201 168.725 225.943 168.608 225.746 168.418C225.549 168.229 225.423 167.977 225.391 167.706L221.499 127.533L223.005 128.432L237.112 126.05L242.787 168.39C242.81 168.557 242.796 168.727 242.747 168.889C242.698 169.05 242.615 169.199 242.503 169.326C242.391 169.453 242.254 169.555 242.099 169.624C241.945 169.694 241.777 169.73 241.607 169.73Z" fill="#3C3F44" class="cds-fill-neutral-8"/>
<path d="M226.217 131.773C224.661 131.761 223.136 131.334 221.802 130.538C221.596 130.417 221.433 130.237 221.332 130.021C221.231 129.806 221.198 129.565 221.237 129.331C221.733 126.31 224.328 110.814 226.688 102.366C227.65 98.9247 229.776 97.0715 233.007 96.8574C237.733 96.5492 241.934 100.226 242.372 105.063C243.143 113.597 240.009 125.722 238.625 130.539C238.572 130.725 238.473 130.895 238.338 131.034C238.202 131.174 238.035 131.278 237.85 131.338C237.665 131.397 237.468 131.411 237.276 131.378C237.084 131.344 236.904 131.264 236.75 131.145L234.071 130.106C233.898 129.974 233.683 129.906 233.465 129.915C233.247 129.925 233.039 130.009 232.877 130.155C230.5 132.263 228.101 131.774 226.217 131.773Z" fill="#3C3F44" class="cds-fill-neutral-8"/>
<path opacity="0.5" d="M235.544 109.239L237.925 119.233L233.733 129.682L236.867 119.496L235.544 109.239Z" fill="#54585F" class="cds-fill-neutral-7"/>
<path d="M237.132 93.4591C237.71 93.4697 238.285 93.3665 238.822 93.1552C239.059 93.0646 239.304 92.9901 239.54 92.8994C241.625 92.0986 242.999 89.8911 243.048 87.6694C243.097 85.4477 241.94 83.2913 240.222 81.8701C238.504 80.4489 236.278 79.7192 234.049 79.5504C231.649 79.3686 228.946 79.9737 227.604 81.9614C227.247 82.4905 226.997 83.1324 227.209 83.7713C227.272 83.9641 227.385 84.1369 227.537 84.2725C228.136 84.8025 228.733 84.4041 229.344 84.3689C230.183 84.3205 230.937 84.9961 231.208 85.7875C231.479 86.5789 231.36 87.4501 231.141 88.2573C230.974 88.743 230.869 89.2474 230.828 89.759C230.811 90.0155 230.859 90.2723 230.969 90.5049C231.079 90.7376 231.247 90.9384 231.457 91.0884C231.982 91.4037 232.671 91.2213 233.195 90.9066C233.72 90.5919 234.174 90.1543 234.741 89.9227C235.308 89.6912 236.069 89.7426 236.399 90.2561C236.504 90.443 236.575 90.6467 236.609 90.858C236.905 92.198 236.837 92.1191 237.132 93.4591Z" fill="#54585F" class="cds-fill-neutral-7"/>
<path d="M225.599 159.859L190.025 147.541C189.755 147.448 189.506 147.303 189.293 147.114C189.08 146.925 188.906 146.696 188.782 146.441C188.658 146.186 188.586 145.909 188.57 145.626C188.553 145.344 188.593 145.061 188.687 144.793L197.223 120.421C197.413 119.881 197.81 119.437 198.33 119.187C198.85 118.937 199.449 118.903 199.994 119.092L235.568 131.409C236.113 131.598 236.56 131.994 236.81 132.51C237.061 133.025 237.095 133.618 236.906 134.158L228.369 158.529C228.18 159.07 227.782 159.514 227.263 159.764C226.743 160.014 226.144 160.048 225.599 159.859Z" fill="white" stroke="#CBCDD2" stroke-width="1.05916" class="cds-stroke-neutral-3"/>
<path d="M198.785 130.919L197.023 130.309C196.928 130.275 196.849 130.206 196.805 130.115C196.761 130.025 196.755 129.921 196.788 129.826L197.402 128.074C197.435 127.979 197.505 127.901 197.596 127.857C197.687 127.813 197.792 127.807 197.888 127.84L199.649 128.45C199.745 128.484 199.823 128.553 199.867 128.644C199.911 128.734 199.917 128.838 199.884 128.933L199.271 130.685C199.237 130.78 199.167 130.858 199.076 130.902C198.985 130.946 198.88 130.952 198.785 130.919Z" fill="#FE5000" class="cds-fill-accent-5"/>
<path d="M197.195 135.457L195.433 134.847C195.338 134.814 195.259 134.744 195.215 134.654C195.171 134.563 195.165 134.459 195.198 134.364L195.812 132.612C195.845 132.517 195.915 132.44 196.006 132.396C196.097 132.352 196.202 132.346 196.298 132.379L198.06 132.989C198.155 133.022 198.233 133.092 198.278 133.182C198.322 133.273 198.328 133.377 198.294 133.472L197.681 135.224C197.648 135.319 197.578 135.397 197.487 135.44C197.395 135.484 197.291 135.49 197.195 135.457Z" fill="#54585F" class="cds-fill-neutral-7"/>
<path d="M195.605 139.996L193.844 139.385C193.748 139.352 193.67 139.283 193.626 139.192C193.582 139.102 193.576 138.997 193.609 138.902L194.222 137.151C194.256 137.056 194.326 136.978 194.417 136.934C194.508 136.89 194.613 136.884 194.708 136.917L196.47 137.527C196.565 137.56 196.644 137.63 196.688 137.721C196.732 137.811 196.738 137.915 196.705 138.01L196.091 139.762C196.058 139.857 195.988 139.935 195.897 139.979C195.806 140.022 195.701 140.029 195.605 139.996Z" fill="#54585F" class="cds-fill-neutral-7"/>
<path d="M210.623 134.035L202.135 131.096C202.087 131.08 202.043 131.054 202.006 131.021C201.968 130.988 201.938 130.948 201.916 130.903C201.894 130.858 201.881 130.809 201.878 130.76C201.875 130.71 201.882 130.66 201.899 130.613C201.915 130.566 201.941 130.522 201.974 130.485C202.008 130.448 202.048 130.417 202.093 130.396C202.139 130.374 202.188 130.362 202.238 130.359C202.288 130.356 202.338 130.363 202.386 130.38L210.874 133.319C210.922 133.335 210.965 133.361 211.003 133.394C211.04 133.427 211.071 133.467 211.093 133.512C211.115 133.557 211.128 133.606 211.131 133.655C211.133 133.705 211.126 133.755 211.11 133.802C211.093 133.849 211.068 133.893 211.034 133.93C211.001 133.967 210.96 133.998 210.915 134.019C210.87 134.041 210.821 134.054 210.771 134.056C210.721 134.059 210.67 134.052 210.623 134.035Z" fill="#CBCDD2" class="cds-fill-neutral-3"/>
<path d="M209.033 138.574L200.545 135.635C200.449 135.602 200.371 135.532 200.327 135.442C200.283 135.351 200.277 135.247 200.31 135.152C200.343 135.057 200.413 134.979 200.504 134.935C200.595 134.891 200.7 134.885 200.796 134.918L209.284 137.858C209.332 137.874 209.376 137.899 209.413 137.932C209.451 137.966 209.481 138.006 209.503 138.051C209.525 138.096 209.538 138.144 209.541 138.194C209.544 138.244 209.537 138.294 209.52 138.341C209.504 138.388 209.478 138.431 209.444 138.469C209.411 138.506 209.371 138.536 209.325 138.558C209.28 138.58 209.231 138.592 209.181 138.595C209.131 138.598 209.081 138.591 209.033 138.574Z" fill="#CBCDD2" class="cds-fill-neutral-3"/>
<path d="M207.444 143.112L198.955 140.173C198.86 140.14 198.781 140.07 198.737 139.98C198.693 139.889 198.687 139.785 198.72 139.69C198.754 139.595 198.823 139.517 198.915 139.473C199.006 139.429 199.111 139.423 199.206 139.456L207.695 142.396C207.79 142.429 207.869 142.498 207.913 142.589C207.957 142.679 207.963 142.784 207.93 142.879C207.896 142.974 207.826 143.052 207.735 143.096C207.644 143.139 207.539 143.145 207.444 143.112Z" fill="#CBCDD2" class="cds-fill-neutral-3"/>
<path d="M230.034 145.572C230.095 145.425 230.154 145.275 230.207 145.122C230.905 143.13 230.778 140.944 229.855 139.045C228.932 137.146 227.288 135.69 225.284 134.996L222.494 142.961L230.034 145.572Z" fill="#FE5000" class="cds-fill-accent-5"/>
<path d="M221.683 143.446L224.473 135.48C222.998 134.97 221.406 134.899 219.891 135.278C218.377 135.656 217.007 136.467 215.951 137.611C214.895 138.754 214.198 140.179 213.947 141.712C213.696 143.244 213.901 144.815 214.538 146.233C215.175 147.651 216.214 148.852 217.529 149.689C218.845 150.526 220.377 150.962 221.938 150.943C223.5 150.924 225.021 150.451 226.316 149.583C227.61 148.715 228.62 147.489 229.222 146.057L221.683 143.446Z" fill="#54585F" class="cds-fill-neutral-7"/>
<path d="M231.671 132.019C231.64 131.633 231.693 131.246 231.829 130.883C231.964 130.521 232.178 130.192 232.455 129.921C232.732 129.649 233.065 129.442 233.431 129.312C233.798 129.183 234.188 129.135 234.575 129.171L238.51 120.626L241.113 124.767L236.978 132.248C236.872 132.89 236.534 133.472 236.026 133.883C235.518 134.293 234.876 134.505 234.222 134.477C233.568 134.448 232.947 134.183 232.477 133.73C232.007 133.277 231.72 132.668 231.671 132.019Z" fill="#FDDADA" class="cds-fill-danger-2"/>
<path d="M238.482 129.01C238.24 129.01 238.003 128.936 237.804 128.799L235.947 127.521C235.746 127.382 235.593 127.185 235.508 126.957C235.423 126.729 235.411 126.48 235.473 126.245L237.657 118.044L235.018 102.818C235.015 102.317 235.111 101.82 235.301 101.356C235.491 100.892 235.771 100.47 236.126 100.114C236.48 99.7578 236.902 99.4745 237.366 99.2804C237.831 99.0863 238.33 98.9851 238.834 98.9827C239.337 98.9803 239.837 99.0767 240.303 99.2663C240.77 99.4559 241.194 99.7351 241.552 100.088C241.91 100.441 242.194 100.86 242.389 101.322C242.584 101.785 242.685 102.28 242.687 102.781L244.85 112.282C245.507 115.165 245.088 118.188 243.671 120.787L239.528 128.39C239.449 128.536 239.339 128.664 239.206 128.765C239.074 128.866 238.921 128.939 238.758 128.977C238.668 128.999 238.575 129.01 238.482 129.01Z" fill="#3C3F44" class="cds-fill-neutral-8"/>
<path d="M256.186 176H214.991C214.934 176 214.878 175.977 214.838 175.936C214.797 175.896 214.774 175.841 214.774 175.784C214.774 175.727 214.797 175.672 214.838 175.632C214.878 175.591 214.934 175.568 214.991 175.568H256.186C256.244 175.568 256.299 175.591 256.34 175.632C256.38 175.672 256.403 175.727 256.403 175.784C256.403 175.841 256.38 175.896 256.34 175.936C256.299 175.977 256.244 176 256.186 176Z" fill="#54585F" class="cds-fill-neutral-7"/>
<rect x="144.677" y="83.4446" width="5.46132" height="6.72127" transform="rotate(3.54401 144.677 83.4446)" fill="#FDDADA" class="cds-fill-danger-2"/>
<path d="M144.982 172.745L148.229 172.745L149.773 160.295H144.982L144.982 172.745Z" fill="#FDDADA" class="cds-fill-danger-2"/>
<path d="M144.154 171.691L150.548 171.691C151.083 171.691 151.613 171.795 152.107 171.999C152.601 172.203 153.051 172.501 153.429 172.877C153.807 173.253 154.107 173.7 154.312 174.191C154.517 174.683 154.622 175.21 154.622 175.742V175.873L144.154 175.874L144.154 171.691Z" fill="#3C3F44" class="cds-fill-neutral-8"/>
<path d="M132.006 172.745L135.253 172.745L136.797 160.295H132.006L132.006 172.745Z" fill="#FDDADA" class="cds-fill-danger-2"/>
<path d="M131.178 171.691L137.572 171.691C138.107 171.691 138.637 171.795 139.131 171.999C139.626 172.203 140.075 172.501 140.453 172.877C140.832 173.253 141.132 173.7 141.336 174.191C141.541 174.683 141.647 175.21 141.647 175.742V175.873L131.179 175.874L131.178 171.691Z" fill="#3C3F44" class="cds-fill-neutral-8"/>
<path d="M145.63 86.5488C149.222 86.5488 152.134 83.6536 152.134 80.0822C152.134 76.5107 149.222 73.6155 145.63 73.6155C142.038 73.6155 139.126 76.5107 139.126 80.0822C139.126 83.6536 142.038 86.5488 145.63 86.5488Z" fill="#FDDADA" class="cds-fill-danger-2"/>
<path d="M150.004 170.058H143.979C143.821 170.058 143.665 170.027 143.52 169.966C143.374 169.906 143.242 169.817 143.131 169.706C143.021 169.594 142.933 169.462 142.874 169.317C142.815 169.171 142.786 169.016 142.788 168.859L143.138 140.415C143.139 140.314 143.101 140.217 143.032 140.142C142.963 140.068 142.868 140.023 142.767 140.016C142.666 140.01 142.566 140.042 142.487 140.106C142.409 140.171 142.358 140.262 142.346 140.363L138.84 169.017C138.805 169.304 138.665 169.568 138.447 169.76C138.229 169.952 137.948 170.058 137.657 170.058H131.575C131.41 170.058 131.248 170.024 131.097 169.959C130.947 169.893 130.811 169.798 130.7 169.678C130.588 169.558 130.503 169.416 130.449 169.262C130.395 169.108 130.374 168.944 130.387 168.781L134.403 117.683L134.512 117.671L153.745 115.606L151.194 168.93C151.18 169.234 151.048 169.521 150.827 169.731C150.605 169.941 150.31 170.058 150.004 170.058Z" fill="#3C3F44" class="cds-fill-neutral-8"/>
<path d="M134.637 120.82C134.328 120.819 134.032 120.699 133.81 120.485C133.588 120.271 133.459 119.979 133.45 119.672C133.345 116.441 133.165 105.262 135.256 97.0542C135.827 94.8121 137.108 92.8121 138.911 91.3499C140.713 89.8877 142.94 89.0408 145.264 88.9346C147.551 88.8104 149.82 89.4055 151.748 90.6353C153.675 91.8652 155.165 93.6674 156.004 95.7863C152.845 113.842 157.578 117.957 153.437 119.672C148.01 121.92 138.966 120.564 134.71 120.817C134.686 120.819 134.661 120.82 134.637 120.82Z" fill="#3C3F44" class="cds-fill-neutral-8"/>
<path d="M159.182 73.2276C159.285 73.3321 159.395 73.4283 159.512 73.5155L158.83 86.5552L155.99 88.0008L157.624 92.5472L162.901 90.4738C163.328 90.3063 163.688 90.0058 163.928 89.6175C164.168 89.2291 164.275 88.7738 164.232 88.32L162.85 73.5285C163.302 73.1929 163.641 72.7283 163.821 72.1964C164.002 71.6646 164.015 71.0908 163.859 70.5513C163.704 70.0118 163.387 69.5322 162.95 69.1763C162.514 68.8204 161.979 68.6051 161.416 68.5589C160.853 68.5128 160.29 68.638 159.801 68.918C159.312 69.1979 158.92 69.6193 158.677 70.1262C158.435 70.633 158.353 71.2012 158.443 71.7552C158.534 72.3093 158.791 72.8228 159.182 73.2276Z" fill="#FDDADA" class="cds-fill-danger-2"/>
<path d="M159.196 87.3591L161.194 93.0038C161.251 93.1644 161.272 93.3353 161.257 93.5048C161.241 93.6744 161.189 93.8386 161.104 93.9863C161.019 94.134 160.902 94.2618 160.763 94.3608C160.624 94.4598 160.465 94.5279 160.297 94.5602L154.406 95.6944C153.578 95.979 152.67 95.9255 151.881 95.5455C151.093 95.1656 150.488 94.4903 150.2 93.6677C149.911 92.845 149.963 91.9423 150.343 91.1573C150.723 90.3724 151.4 89.7693 152.227 89.4803L157.516 86.7045C157.668 86.625 157.835 86.579 158.006 86.5695C158.177 86.56 158.348 86.5872 158.507 86.6493C158.666 86.7115 158.811 86.807 158.929 86.9295C159.048 87.052 159.139 87.1985 159.196 87.3591Z" fill="#3C3F44" class="cds-fill-neutral-8"/>
<path d="M131.323 73.5463C131.221 73.6507 131.11 73.7469 130.993 73.8341L131.676 86.8738L134.516 88.3194L132.882 92.8658L127.604 90.7924C127.178 90.6249 126.817 90.3244 126.578 89.9361C126.338 89.5477 126.231 89.0924 126.273 88.6386L127.656 73.8471C127.203 73.5115 126.864 73.0469 126.684 72.515C126.504 71.9832 126.49 71.4094 126.646 70.8699C126.802 70.3304 127.119 69.8508 127.555 69.4949C127.992 69.139 128.527 68.9237 129.089 68.8775C129.652 68.8314 130.215 68.9566 130.705 69.2366C131.194 69.5165 131.586 69.938 131.828 70.4448C132.071 70.9516 132.152 71.5198 132.062 72.0738C131.972 72.6279 131.714 73.1414 131.323 73.5463Z" fill="#FDDADA" class="cds-fill-danger-2"/>
<path d="M132.311 86.6494C132.471 86.5872 132.642 86.56 132.813 86.5695C132.984 86.579 133.151 86.6251 133.302 86.7046L138.591 89.4805C139.418 89.7694 140.095 90.3725 140.475 91.1574C140.855 91.9424 140.907 92.8451 140.619 93.6678C140.33 94.4904 139.725 95.1657 138.937 95.5456C138.148 95.9256 137.241 95.9791 136.412 95.6946L130.522 94.5604C130.353 94.528 130.194 94.4599 130.055 94.3609C129.916 94.2619 129.8 94.1341 129.714 93.9864C129.629 93.8387 129.577 93.6745 129.562 93.505C129.546 93.3354 129.567 93.1645 129.624 93.0039L131.622 87.3593C131.679 87.1986 131.77 87.052 131.889 86.9295C132.008 86.807 132.152 86.7115 132.311 86.6494Z" fill="#3C3F44" class="cds-fill-neutral-8"/>
<path d="M148.156 81.1846C148.122 80.3597 148.33 79.5427 148.755 78.8335C149.181 78.1244 149.804 77.5536 150.55 77.1911C152.527 76.1763 153.769 74.0118 153.225 72.0353C152.528 69.5054 149.065 67.8646 146.259 68.735C145.5 69.0031 144.767 69.3415 144.072 69.7459L142.238 70.723C141.455 71.1128 140.7 71.556 139.978 72.0494C138.897 72.8413 138.05 73.9073 137.525 75.1361C137 76.3648 136.817 77.7111 136.994 79.0345C137.355 81.6065 139.049 83.9652 141.368 85.5801C142.255 86.2391 143.279 86.6917 144.365 86.9047C145.477 87.0869 146.714 86.8799 147.527 86.1926C148.797 85.1185 148.666 83.3199 148.255 81.8177C148.201 81.6105 148.168 81.3984 148.156 81.1846Z" fill="#54585F" class="cds-fill-neutral-7"/>
<path d="M164.014 175.999H120.844C120.783 175.999 120.726 175.976 120.683 175.933C120.64 175.891 120.616 175.833 120.616 175.774C120.616 175.714 120.64 175.656 120.683 175.614C120.726 175.571 120.783 175.548 120.844 175.548H164.014C164.074 175.548 164.132 175.571 164.175 175.614C164.217 175.656 164.241 175.714 164.241 175.774C164.241 175.833 164.217 175.891 164.175 175.933C164.132 175.976 164.074 175.999 164.014 175.999Z" fill="#54585F" class="cds-fill-neutral-7"/>
<path d="M78.4575 111.023C78.4352 111.032 78.4245 111.057 78.4337 111.079C78.4429 111.102 78.4685 111.112 78.4908 111.103L78.8971 110.938C78.9195 110.928 78.9301 110.903 78.9209 110.881C78.9117 110.858 78.8862 110.848 78.8638 110.857L78.4575 111.023Z" fill="white" stroke="#CBCDD2" stroke-width="1.18081" class="cds-stroke-neutral-3"/>
<path d="M45.4911 124.47C45.4688 124.479 45.4581 124.504 45.4673 124.526C45.4765 124.549 45.5021 124.559 45.5244 124.55L45.9307 124.385C45.953 124.375 45.9637 124.35 45.9545 124.328C45.9453 124.305 45.9197 124.295 45.8974 124.304L45.4911 124.47Z" fill="white" stroke="#CBCDD2" stroke-width="1.18081" class="cds-stroke-neutral-3"/>
<path d="M65.5594 125.055C65.5371 125.064 65.5264 125.09 65.5356 125.112C65.5448 125.134 65.5704 125.145 65.5927 125.136L65.999 124.97C66.0213 124.961 66.032 124.936 66.0228 124.913C66.0136 124.891 65.988 124.88 65.9657 124.89L65.5594 125.055Z" fill="white" stroke="#CBCDD2" stroke-width="1.18081" class="cds-stroke-neutral-3"/>
<path d="M62.2188 126.513L62.0982 126.562C62.0921 126.55 62.0863 126.537 62.081 126.524L62.081 126.524L62.2188 126.513ZM62.2188 126.513C62.2146 126.499 62.2098 126.486 62.2045 126.473C62.2045 126.473 62.2045 126.473 62.2045 126.473L62.2188 126.513ZM62.0652 126.481L62.1858 126.432C62.192 126.444 62.1977 126.457 62.2031 126.47L62.2031 126.47L62.0652 126.481ZM62.0652 126.481C62.0695 126.494 62.0742 126.507 62.0795 126.521C62.0795 126.521 62.0795 126.521 62.0795 126.521L62.0652 126.481ZM60.2653 127.264C60.2706 127.277 60.2754 127.29 60.2796 127.304L60.159 127.353C60.1529 127.341 60.1471 127.328 60.1418 127.315L60.2653 127.264ZM60.2653 127.264C60.2649 127.263 60.2644 127.262 60.2639 127.261C60.2585 127.248 60.2528 127.235 60.2466 127.223L60.126 127.272C60.1303 127.285 60.135 127.298 60.1403 127.312C60.1408 127.313 60.1413 127.314 60.1418 127.315L60.2653 127.264ZM64.1437 125.682C64.1433 125.681 64.1428 125.68 64.1423 125.679L64.0187 125.73C64.0192 125.731 64.0197 125.732 64.0202 125.733L64.1437 125.682ZM64.1437 125.682C64.149 125.695 64.1538 125.708 64.158 125.722L64.0374 125.771C64.0313 125.759 64.0255 125.746 64.0202 125.733L64.1437 125.682ZM56.2619 128.894C56.2624 128.895 56.2629 128.896 56.2634 128.897L56.3869 128.846M56.2619 128.894L56.3854 128.843C56.3859 128.844 56.3864 128.845 56.3869 128.846M56.2619 128.894C56.2566 128.88 56.2519 128.867 56.2476 128.854L56.3682 128.805C56.3744 128.817 56.3801 128.83 56.3854 128.843L56.2619 128.894ZM56.3869 128.846L56.2634 128.897C56.2687 128.91 56.2745 128.923 56.2806 128.935L56.4012 128.886C56.397 128.872 56.3922 128.859 56.3869 128.846ZM53.9243 129.802L53.9372 129.833L53.9408 129.842M53.9243 129.802L53.94 129.84M53.9243 129.802L53.94 129.84M53.9243 129.802L53.94 129.84M53.9408 129.842L53.94 129.84M53.9408 129.842L54.3227 129.685M53.9408 129.842L53.9425 129.846L53.9408 129.842ZM53.9408 129.842L54.3227 129.685M54.3227 129.685L53.9525 129.871L53.9573 129.883L54.3414 129.726C54.3352 129.714 54.3295 129.701 54.3242 129.688L54.4477 129.637M54.3227 129.685C54.3227 129.685 54.3227 129.685 54.3227 129.685M54.3227 129.685L54.4462 129.634C54.4409 129.621 54.4352 129.608 54.429 129.596L54.8131 129.439C54.8353 129.43 54.8608 129.441 54.8699 129.463C54.8792 129.485 54.8685 129.511 54.8461 129.52L54.462 129.677C54.4578 129.663 54.453 129.65 54.4477 129.637M54.3227 129.685C54.3174 129.671 54.3126 129.658 54.3084 129.645L54.3227 129.685ZM54.3227 129.685C54.3232 129.686 54.3237 129.687 54.3242 129.688L54.4477 129.637M54.3227 129.685L54.4462 129.634C54.4467 129.635 54.4472 129.636 54.4477 129.637M52.3835 130.476C52.384 130.477 52.3845 130.478 52.385 130.479L52.5085 130.428C52.508 130.427 52.5075 130.426 52.507 130.425L52.3835 130.476ZM52.3835 130.476L52.507 130.425C52.5017 130.412 52.496 130.399 52.4898 130.387L52.3692 130.436C52.3734 130.449 52.3782 130.462 52.3835 130.476ZM50.9915 131.045L50.9512 131.062L50.9915 131.045ZM50.9915 131.045C51.0008 131.067 50.99 131.093 50.9677 131.102L50.9915 131.045ZM64.0187 125.73C64.0134 125.716 64.0087 125.703 64.0045 125.69L64.125 125.641C64.1312 125.653 64.137 125.666 64.1423 125.679L64.0187 125.73ZM58.2026 128.106C58.2021 128.105 58.2016 128.104 58.2011 128.103C58.1958 128.089 58.1911 128.076 58.1868 128.063L58.3074 128.014C58.3136 128.026 58.3193 128.039 58.3247 128.052C58.3252 128.053 58.3256 128.054 58.3261 128.055C58.3314 128.068 58.3362 128.081 58.3404 128.095L58.2198 128.144C58.2137 128.132 58.2079 128.119 58.2026 128.106ZM52.5228 130.468L52.4022 130.517C52.396 130.505 52.3903 130.492 52.385 130.479L52.5085 130.428C52.5138 130.441 52.5186 130.454 52.5228 130.468ZM50.4458 131.27C50.4453 131.269 50.4448 131.268 50.4443 131.266C50.439 131.253 50.4342 131.24 50.43 131.227L50.5506 131.178C50.5568 131.19 50.5625 131.203 50.5678 131.215C50.5683 131.217 50.5688 131.218 50.5693 131.219L50.4458 131.27ZM50.4458 131.27L50.5693 131.219C50.5746 131.232 50.5794 131.245 50.5836 131.259L50.463 131.308C50.4568 131.296 50.4511 131.283 50.4458 131.27Z" fill="white" stroke="#CBCDD2" stroke-width="1.18081" class="cds-stroke-neutral-3"/>
<path d="M48.589 131.978C48.5667 131.987 48.5561 132.012 48.5653 132.035C48.5745 132.057 48.6 132.068 48.6224 132.059L49.0287 131.893C49.051 131.884 49.0617 131.858 49.0525 131.836C49.0433 131.814 49.0177 131.803 48.9954 131.812L48.589 131.978Z" fill="white" stroke="#CBCDD2" stroke-width="1.18081" class="cds-stroke-neutral-3"/>
<path d="M57.5249 132.483C57.5025 132.492 57.4919 132.517 57.5011 132.54C57.5103 132.562 57.5359 132.573 57.5582 132.564L57.9645 132.398C57.9868 132.389 57.9975 132.363 57.9883 132.341C57.9791 132.319 57.9535 132.308 57.9312 132.317L57.5249 132.483Z" fill="white" stroke="#CBCDD2" stroke-width="1.18081" class="cds-stroke-neutral-3"/>
<path d="M52.4729 134.591L52.4893 134.631L52.4729 134.591ZM52.4729 134.591L52.4727 134.59L52.4692 134.582L52.472 134.589L52.4729 134.591ZM51.9659 134.796C51.9607 134.783 51.9559 134.769 51.9517 134.756L52.0443 134.718C52.0505 134.731 52.0562 134.743 52.0616 134.756L51.9659 134.796ZM51.9659 134.796C51.9664 134.797 51.967 134.798 51.9675 134.799C51.9728 134.812 51.9785 134.825 51.9847 134.837L52.0773 134.799C52.0731 134.786 52.0683 134.773 52.0631 134.76C52.0626 134.759 52.0621 134.757 52.0616 134.756L51.9659 134.796ZM53.9611 133.982C53.9616 133.983 53.9621 133.984 53.9626 133.985L54.0582 133.946M53.9611 133.982C53.9558 133.969 53.9511 133.956 53.9469 133.942L54.0394 133.905C54.0456 133.917 54.0514 133.929 54.0567 133.942C54.0572 133.944 54.0577 133.945 54.0582 133.946M53.9611 133.982C53.9611 133.982 53.9611 133.982 53.9611 133.982ZM54.0582 133.946L53.9626 133.985C53.9679 133.998 53.9737 134.011 53.9798 134.023L54.0724 133.985C54.0682 133.972 54.0635 133.959 54.0582 133.946ZM55.942 133.129L56.0346 133.091C56.0408 133.103 56.0465 133.116 56.0519 133.128C56.0524 133.13 56.0529 133.131 56.0534 133.132L55.9578 133.172C55.9573 133.17 55.9567 133.169 55.9562 133.168C55.9562 133.168 55.9562 133.168 55.9562 133.168C55.951 133.155 55.9462 133.142 55.942 133.129ZM55.9578 133.172L56.0534 133.132C56.0587 133.145 56.0634 133.158 56.0676 133.172L55.975 133.209C55.9688 133.197 55.9631 133.185 55.9578 133.172Z" fill="white" stroke="#CBCDD2" stroke-width="1.18081" class="cds-stroke-neutral-3"/>
<path d="M50.0545 135.53C50.0322 135.539 50.0216 135.565 50.0308 135.587C50.04 135.609 50.0655 135.62 50.0878 135.611L50.4942 135.445C50.5165 135.436 50.5271 135.411 50.5179 135.388C50.5087 135.366 50.4832 135.355 50.4609 135.364L50.0545 135.53Z" fill="white" stroke="#CBCDD2" stroke-width="1.18081" class="cds-stroke-neutral-3"/>
<path d="M60.0262 138.545C60.0039 138.554 59.9932 138.579 60.0024 138.602C60.0116 138.624 60.0372 138.635 60.0595 138.626L60.4658 138.46C60.4882 138.451 60.4988 138.425 60.4896 138.403C60.4804 138.381 60.4549 138.37 60.4325 138.379L60.0262 138.545Z" fill="white" stroke="#CBCDD2" stroke-width="1.18081" class="cds-stroke-neutral-3"/>
<mask id="path-66-inside-1_10897_1303" fill="white">
<path d="M59.0048 139.008C59.014 139.031 59.0033 139.056 58.9809 139.066L58.0642 139.439C58.0419 139.449 58.0165 139.438 58.0073 139.416C57.9981 139.393 58.0088 139.368 58.0312 139.359L58.9479 138.985C58.9702 138.976 58.9956 138.986 59.0048 139.008ZM57.0096 139.822C57.0188 139.845 57.0081 139.87 56.9857 139.879L56.069 140.253C56.0467 140.262 56.0213 140.252 56.0121 140.23C56.0029 140.207 56.0136 140.182 56.036 140.172L56.9527 139.799C56.975 139.789 57.0004 139.8 57.0096 139.822ZM55.0144 140.636C55.0237 140.658 55.013 140.684 54.9906 140.693L54.0739 141.067C54.0516 141.076 54.0262 141.066 54.017 141.043C54.0078 141.021 54.0185 140.995 54.0409 140.986L54.9576 140.612C54.9798 140.603 55.0053 140.614 55.0144 140.636Z"/>
</mask>
<path d="M59.0048 139.008C59.014 139.031 59.0033 139.056 58.9809 139.066L58.0642 139.439C58.0419 139.449 58.0165 139.438 58.0073 139.416C57.9981 139.393 58.0088 139.368 58.0312 139.359L58.9479 138.985C58.9702 138.976 58.9956 138.986 59.0048 139.008ZM57.0096 139.822C57.0188 139.845 57.0081 139.87 56.9857 139.879L56.069 140.253C56.0467 140.262 56.0213 140.252 56.0121 140.23C56.0029 140.207 56.0136 140.182 56.036 140.172L56.9527 139.799C56.975 139.789 57.0004 139.8 57.0096 139.822ZM55.0144 140.636C55.0237 140.658 55.013 140.684 54.9906 140.693L54.0739 141.067C54.0516 141.076 54.0262 141.066 54.017 141.043C54.0078 141.021 54.0185 140.995 54.0409 140.986L54.9576 140.612C54.9798 140.603 55.0053 140.614 55.0144 140.636Z" fill="white"/>
<path d="M54.9576 140.612L54.5116 139.519L54.9576 140.612ZM54.0409 140.986L54.4868 142.08L54.0409 140.986ZM54.0739 141.067L53.6279 139.974L54.0739 141.067ZM54.9906 140.693L55.4365 141.787L54.9906 140.693ZM56.9527 139.799L56.5068 138.705L56.9527 139.799ZM56.036 140.172L55.5901 139.079L56.036 140.172ZM56.069 140.253L56.515 141.347L56.069 140.253ZM56.9857 139.879L56.5397 138.786L56.9857 139.879ZM58.9479 138.985L58.5019 137.891L58.9479 138.985ZM58.0642 139.439L58.5101 140.533L58.0642 139.439ZM58.5349 137.972L57.6182 138.346L58.5101 140.533L59.4268 140.159L58.5349 137.972ZM58.4771 140.452L59.3939 140.078L58.5019 137.891L57.5852 138.265L58.4771 140.452ZM56.5397 138.786L55.623 139.16L56.515 141.347L57.4317 140.973L56.5397 138.786ZM56.482 141.266L57.3987 140.892L56.5068 138.705L55.5901 139.079L56.482 141.266ZM54.5446 139.6L53.6279 139.974L54.5198 142.16L55.4365 141.787L54.5446 139.6ZM54.4868 142.08L55.4035 141.706L54.5116 139.519L53.5949 139.893L54.4868 142.08ZM55.4035 141.706C54.8237 141.942 54.1618 141.665 53.9229 141.086L56.106 140.186C55.8488 139.562 55.136 139.264 54.5116 139.519L55.4035 141.706ZM55.1086 140.593C55.3487 141.175 55.07 141.842 54.4868 142.08L53.5949 139.893C52.967 140.149 52.6668 140.867 52.9254 141.494L55.1086 140.593ZM53.6279 139.974C54.2077 139.737 54.8697 140.014 55.1086 140.593L52.9254 141.494C53.1826 142.117 53.8954 142.415 54.5198 142.16L53.6279 139.974ZM55.4365 141.787C56.0645 141.53 56.3647 140.813 56.106 140.186L53.9229 141.086C53.6827 140.504 53.9614 139.838 54.5446 139.6L55.4365 141.787ZM57.3987 140.892C56.8189 141.128 56.1569 140.852 55.9181 140.273L58.1011 139.372C57.8439 138.749 57.1311 138.45 56.5068 138.705L57.3987 140.892ZM57.1037 139.779C57.3439 140.361 57.0651 141.028 56.482 141.266L55.5901 139.079C54.9621 139.335 54.6619 140.053 54.9206 140.68L57.1037 139.779ZM55.623 139.16C56.2029 138.923 56.8649 139.2 57.1037 139.779L54.9206 140.68C55.1778 141.303 55.8906 141.601 56.515 141.347L55.623 139.16ZM57.4317 140.973C58.0597 140.717 58.3598 139.999 58.1011 139.372L55.9181 140.273C55.6778 139.69 55.9566 139.024 56.5397 138.786L57.4317 140.973ZM59.3939 140.078C58.814 140.315 58.1521 140.038 57.9132 139.459L60.0963 138.558C59.8391 137.935 59.1263 137.637 58.5019 137.891L59.3939 140.078ZM59.0989 138.965C59.3391 139.548 59.0603 140.214 58.4771 140.452L57.5852 138.265C56.9573 138.521 56.6571 139.239 56.9158 139.866L59.0989 138.965ZM57.6182 138.346C58.1981 138.11 58.86 138.386 59.0989 138.965L56.9158 139.866C57.1729 140.489 57.8857 140.788 58.5101 140.533L57.6182 138.346ZM59.4268 140.159C60.0548 139.903 60.355 139.185 60.0963 138.558L57.9132 139.459C57.673 138.877 57.9517 138.21 58.5349 137.972L59.4268 140.159Z" fill="#CBCDD2" mask="url(#path-66-inside-1_10897_1303)" class="cds-fill-neutral-3"/>
<path d="M52.5559 141.591C52.5336 141.601 52.5229 141.626 52.5321 141.648C52.5413 141.671 52.5669 141.681 52.5892 141.672L52.9955 141.506C53.0179 141.497 53.0285 141.472 53.0193 141.45C53.0101 141.427 52.9846 141.417 52.9622 141.426L52.5559 141.591Z" fill="white" stroke="#CBCDD2" stroke-width="1.18081" class="cds-stroke-neutral-3"/>
<path d="M55.2348 140.76L55.1538 140.727L58.0435 133.856C58.12 133.675 58.2657 133.531 58.4487 133.457C58.6317 133.382 58.8369 133.383 59.0195 133.458L62.6826 134.981L66.2737 126.444C66.3502 126.262 66.4959 126.119 66.6789 126.044C66.8619 125.969 67.0671 125.97 67.2497 126.046L72.2869 128.14L79.2136 111.672L79.2946 111.705L72.334 128.254L67.2158 126.126C67.1361 126.093 67.0506 126.076 66.9641 126.075C66.8777 126.075 66.792 126.092 66.7121 126.124C66.6321 126.157 66.5594 126.205 66.498 126.265C66.4367 126.326 66.388 126.398 66.3546 126.477L62.7297 135.096L58.9856 133.539C58.8246 133.472 58.6434 133.472 58.482 133.537C58.3205 133.603 58.1919 133.73 58.1244 133.89L55.2348 140.76Z" fill="#3C3F44" class="cds-fill-neutral-8"/>
<path d="M57.9883 132.952C58.3276 132.952 58.6027 132.678 58.6027 132.341C58.6027 132.004 58.3276 131.73 57.9883 131.73C57.649 131.73 57.374 132.004 57.374 132.341C57.374 132.678 57.649 132.952 57.9883 132.952Z" fill="#3C3F44" class="cds-fill-neutral-8"/>
<rect x="52.2243" y="90.2776" width="5.40987" height="6.65796" transform="rotate(-10.7826 52.2243 90.2776)" fill="#FDDADA" class="cds-fill-danger-2"/>
<path d="M55.2368 91.2499C58.6966 91.2499 61.5014 88.4612 61.5014 85.0212C61.5014 81.5812 58.6966 78.7925 55.2368 78.7925C51.7769 78.7925 48.9721 81.5812 48.9721 85.0212C48.9721 88.4612 51.7769 91.2499 55.2368 91.2499Z" fill="#FDDADA" class="cds-fill-danger-2"/>
<path d="M97.1456 122.883L59.9349 138.061C59.6506 138.177 59.346 138.236 59.0385 138.235C58.731 138.234 58.4268 138.173 58.1433 138.055C57.8599 137.937 57.6027 137.765 57.3864 137.549C57.1702 137.332 56.9992 137.076 56.8829 136.794L46.3641 111.301C46.2478 111.019 46.1885 110.717 46.1896 110.413C46.1906 110.109 46.2519 109.807 46.3701 109.526C46.4883 109.245 46.6611 108.99 46.8788 108.775C47.0966 108.56 47.3549 108.389 47.6392 108.273L84.8499 93.0955C85.1342 92.9795 85.4388 92.9203 85.7463 92.9213C86.0537 92.9224 86.3579 92.9836 86.6414 93.1015C86.9249 93.2194 87.1821 93.3915 87.3983 93.608C87.6145 93.8244 87.7856 94.0809 87.9019 94.3628L98.4207 119.856C98.6555 120.425 98.6533 121.063 98.4146 121.63C98.1759 122.198 97.7198 122.649 97.1456 122.883Z" fill="white" stroke="#CBCDD2" stroke-width="1.09949" class="cds-stroke-neutral-3"/>
<path d="M61.7226 134.558L93.2561 121.696C94.0193 121.383 94.6267 120.783 94.9451 120.026C95.2635 119.269 95.2669 118.417 94.9545 117.658L88.5833 102.217L88.5217 102.244L80.7834 120.64L75.0441 118.255C74.9382 118.21 74.8234 118.191 74.7087 118.198C74.594 118.205 74.4826 118.238 74.383 118.296C74.2336 118.385 74.118 118.521 74.0541 118.682L69.9985 128.323L65.8022 126.579C65.7117 126.541 65.6146 126.521 65.5164 126.521C65.4183 126.521 65.321 126.539 65.2302 126.577C65.1394 126.614 65.0568 126.668 64.9872 126.737C64.9175 126.806 64.8622 126.887 64.8244 126.977C64.7975 127.043 62.2101 133.355 61.7226 134.558Z" fill="#006CD6" class="cds-fill-primary-5"/>
<path d="M51.1711 126.222C51.5298 126.045 51.8449 125.791 52.0944 125.479C52.3438 125.168 52.5215 124.806 52.6149 124.418C52.7083 124.031 52.7152 123.628 52.6351 123.238C52.5549 122.848 52.3897 122.48 52.151 122.16L54.1999 102.242H49.772L48.1437 121.691C47.6298 122.125 47.294 122.732 47.1999 123.396C47.1058 124.06 47.2599 124.735 47.6331 125.293C48.0063 125.852 48.5726 126.255 49.2246 126.426C49.8767 126.597 50.5693 126.525 51.1711 126.222Z" fill="#FDDADA" class="cds-fill-danger-2"/>
<path d="M56.4162 113.841C56.1654 113.841 55.9216 113.759 55.7221 113.608C55.5226 113.457 55.3786 113.245 55.312 113.005C54.8101 111.192 53.5042 108.126 51.4308 103.893C50.963 102.936 50.7039 101.892 50.6706 100.828C50.6373 99.7647 50.8305 98.7062 51.2376 97.7222C51.6447 96.7382 52.2564 95.8509 53.0326 95.1185C53.8088 94.3861 54.732 93.8251 55.7416 93.4724C56.6984 93.1365 57.7132 92.9949 58.726 93.0558C59.7388 93.1167 60.729 93.3789 61.6381 93.827C62.5472 94.2751 63.3567 94.8999 64.0186 95.6645C64.6805 96.429 65.1815 97.3179 65.4919 98.2783C67.099 103.288 67.0214 108.654 66.9135 110.729C66.9001 110.978 66.8047 111.217 66.6419 111.408C66.479 111.598 66.2578 111.731 66.0121 111.785L56.6623 113.815C56.5815 113.832 56.4989 113.841 56.4162 113.841Z" fill="#FE5000" class="cds-fill-accent-5"/>
<path d="M65.4704 172.988H68.5973L70.085 160.996L65.4698 160.996L65.4704 172.988Z" fill="#FDDADA" class="cds-fill-danger-2"/>
<path d="M74.6282 175.875L64.8004 175.875L64.8002 172.1L70.831 172.099C71.3296 172.099 71.8234 172.197 72.2841 172.387C72.7447 172.576 73.1634 172.854 73.516 173.205C73.8686 173.556 74.1483 173.972 74.3391 174.43C74.53 174.888 74.6282 175.379 74.6282 175.875Z" fill="#54585F" class="cds-fill-neutral-7"/>
<path d="M34.2016 168.959L36.942 170.457L44.0567 160.661L40.0127 158.45L34.2016 168.959Z" fill="#FDDADA" class="cds-fill-danger-2"/>
<path d="M40.8276 175.875L32.2155 171.168L34.0448 167.86L39.3295 170.748C40.212 171.231 40.8656 172.042 41.1466 173.003C41.4275 173.965 41.3128 174.998 40.8276 175.875Z" fill="#54585F" class="cds-fill-neutral-7"/>
<path d="M65.3243 166.332C65.0457 166.332 64.7766 166.231 64.5674 166.048C64.3582 165.865 64.223 165.613 64.1872 165.338L60.2765 135.376C60.2592 135.243 60.2002 135.119 60.108 135.022C60.0158 134.925 59.895 134.859 59.763 134.834C59.6309 134.809 59.4943 134.827 59.3727 134.883C59.251 134.94 59.1506 135.034 59.0857 135.151L42.7874 164.551C42.6529 164.791 42.4363 164.975 42.1768 165.07C41.9174 165.165 41.6324 165.163 41.3737 165.067L37.8211 163.721C37.6782 163.667 37.5477 163.585 37.4371 163.48C37.3265 163.375 37.2381 163.249 37.1772 163.11C37.1162 162.97 37.0839 162.82 37.082 162.668C37.0802 162.516 37.109 162.365 37.1667 162.225L48.4569 134.649C48.4855 134.579 48.5049 134.505 48.5146 134.43C50.0438 122.662 53.9345 116.678 55.0906 115.124C55.175 115.01 55.2306 114.877 55.2526 114.737C55.2746 114.597 55.2624 114.454 55.217 114.32L55.0581 113.846C54.9946 113.657 54.9816 113.456 55.0204 113.261C55.0591 113.067 55.1483 112.886 55.279 112.736C59.4445 108.018 66.7049 110.592 66.7778 110.619L66.8141 110.632L66.8369 110.663C74.9779 121.764 71.9679 157.819 71.2819 164.934C71.2563 165.201 71.1364 165.451 70.9434 165.639C70.7504 165.827 70.4968 165.941 70.2274 165.961L65.4135 166.329C65.3835 166.331 65.3538 166.332 65.3243 166.332Z" fill="#3C3F44" class="cds-fill-neutral-8"/>
<path d="M79.5914 92.2563C79.56 92.3932 79.5396 92.5322 79.5303 92.6723L68.5734 98.957L65.9102 97.4326L63.071 101.128L67.522 104.282C67.8815 104.537 68.3146 104.669 68.756 104.658C69.1974 104.648 69.6234 104.495 69.9701 104.223L81.2686 95.3607C81.7785 95.5484 82.3338 95.5773 82.8606 95.4435C83.3874 95.3097 83.8607 95.0197 84.2177 94.6119C84.5746 94.2041 84.7983 93.698 84.8588 93.1607C84.9194 92.6235 84.814 92.0807 84.5567 91.6045C84.2994 91.1282 83.9024 90.7412 83.4185 90.4948C82.9345 90.2484 82.3866 90.1543 81.8476 90.2251C81.3085 90.2958 80.8039 90.5281 80.4009 90.8909C79.9979 91.2538 79.7155 91.73 79.5914 92.2563Z" fill="#FDDADA" class="cds-fill-danger-2"/>
<path d="M68.207 99.2548L64.6658 103.818C64.565 103.948 64.4373 104.055 64.2913 104.131C64.1453 104.207 63.9845 104.251 63.8198 104.26C63.6551 104.269 63.4904 104.243 63.3369 104.183C63.1834 104.123 63.0448 104.031 62.9303 103.913L58.9214 99.7735C58.2562 99.2572 57.8241 98.4997 57.7198 97.6671C57.6155 96.8345 57.8475 95.9947 58.3649 95.3319C58.8824 94.6691 59.6431 94.2374 60.4803 94.1314C61.3174 94.0254 62.1626 94.2537 62.8307 94.7664L67.8588 97.5618C68.0027 97.6419 68.1276 97.7519 68.2249 97.8843C68.3222 98.0167 68.3897 98.1684 68.4228 98.329C68.4558 98.4897 68.4537 98.6555 68.4164 98.8153C68.3792 98.9751 68.3078 99.125 68.207 99.2548Z" fill="#FE5000" class="cds-fill-accent-5"/>
<path d="M56.2283 83.588C57.8384 84.6837 59.9526 85.81 61.5971 84.6432C62.1115 84.2537 62.4852 83.709 62.6623 83.0907C62.8393 82.4724 62.8102 81.8137 62.5793 81.2132C61.7918 78.9743 59.6283 77.9886 57.5595 77.2331C54.87 76.2509 51.9415 75.4695 49.165 76.1729C46.3885 76.8763 43.9348 79.5491 44.436 82.3539C44.839 84.6095 46.979 86.4863 46.6752 88.7572C46.3694 91.0427 43.7843 92.2457 41.5021 92.6542C39.2198 93.0626 36.666 93.1939 35.0258 94.8238C32.9335 96.903 33.456 100.619 35.4248 102.815C37.3935 105.01 40.3646 106.005 43.2435 106.681C47.0578 107.578 51.1834 108.049 54.8061 106.561C58.4288 105.074 61.2479 101.07 60.1984 97.315C59.7552 95.7291 58.7109 94.3887 57.7017 93.0838C56.6925 91.7789 55.6706 90.4144 55.2857 88.8135C54.9649 87.4794 55.2023 85.9304 56.0921 84.9296C56.254 84.7545 56.3558 84.5328 56.3831 84.2965C56.4103 84.0602 56.3615 83.8214 56.2437 83.6144L56.2283 83.588Z" fill="#54585F" class="cds-fill-neutral-7"/>
<path d="M74.3901 176H29.1752C29.1121 176 29.0515 175.976 29.0069 175.934C28.9623 175.892 28.9372 175.835 28.9372 175.776C28.9372 175.717 28.9623 175.66 29.0069 175.618C29.0515 175.576 29.1121 175.552 29.1752 175.552H74.3901C74.4532 175.552 74.5137 175.576 74.5584 175.618C74.603 175.66 74.6281 175.717 74.6281 175.776C74.6281 175.835 74.603 175.892 74.5584 175.934C74.5137 175.976 74.4532 176 74.3901 176Z" fill="#54585F" class="cds-fill-neutral-7"/>
</svg>