<svg xmlns="http://www.w3.org/2000/svg" width="100%" height="100%" viewBox="0 0 288 192" fill="none">
<rect x="90.2759" y="96" width="4.9375" height="7.15039" fill="#FDDADA" class="cds-fill-danger-2"/>
<path d="M88.9227 58.3125C88.3373 58.3125 87.7758 58.5419 87.3619 58.9501C86.9479 59.3583 86.7154 59.912 86.7154 60.4893C86.7154 61.0666 86.9479 61.6203 87.3619 62.0285C87.7758 62.4367 88.3373 62.666 88.9227 62.666H116.67V61.7164C116.669 61.0416 116.84 60.3773 117.164 59.7831C117.489 59.189 117.958 58.6837 118.529 58.3125H88.9227Z" fill="#CBCDD2" class="cds-fill-neutral-3"/>
<rect x="109.438" y="58.3125" width="75.2151" height="73.125" rx="5" fill="white"/>
<path d="M107.313 54.2217H97.9316C97.3462 54.2217 96.7847 53.9923 96.3707 53.5841C95.9568 53.1759 95.7241 52.6222 95.7241 52.0449C95.7241 51.4676 95.9568 50.9139 96.3707 50.5057C96.7847 50.0975 97.3462 49.8682 97.9316 49.8682H107.313C107.899 49.8682 108.46 50.0975 108.874 50.5057C109.288 50.9139 109.52 51.4676 109.52 52.0449C109.52 52.6222 109.288 53.1759 108.874 53.5841C108.46 53.9923 107.899 54.2217 107.313 54.2217Z" fill="#CBCDD2" class="cds-fill-neutral-3"/>
<path d="M86.2721 36.9512H49.8497C49.2643 36.9512 48.7028 36.7219 48.2888 36.3136C47.8749 35.9054 47.6423 35.3518 47.6423 34.7744C47.6423 34.1971 47.8749 33.6435 48.2888 33.2352C48.7028 32.827 49.2643 32.5977 49.8497 32.5977H86.2721C86.8575 32.5977 87.4189 32.827 87.833 33.2352C88.2469 33.6435 88.4794 34.1971 88.4794 34.7744C88.4794 35.3518 88.2469 35.9054 87.833 36.3136C87.4189 36.7219 86.8575 36.9512 86.2721 36.9512Z" fill="#CBCDD2" class="cds-fill-neutral-3"/>
<path d="M70.4063 29.4612H65.7155C65.13 29.4612 64.5686 29.2318 64.1546 28.8236C63.7406 28.4154 63.5081 27.8617 63.5081 27.2844C63.5081 26.7071 63.7406 26.1534 64.1546 25.7452C64.5686 25.337 65.13 25.1077 65.7155 25.1077H70.4063C70.9917 25.1077 71.5531 25.337 71.9671 25.7452C72.3811 26.1534 72.6136 26.7071 72.6136 27.2844C72.6136 27.8617 72.3811 28.4154 71.9671 28.8236C71.5531 29.2318 70.9917 29.4612 70.4063 29.4612Z" fill="#CBCDD2" class="cds-fill-neutral-3"/>
<path d="M109.534 102.898H75.1991C73.9554 102.896 72.7631 102.409 71.8837 101.542C71.0043 100.674 70.5097 99.4986 70.5083 98.2722V44.7132C70.5097 43.4869 71.0043 42.3111 71.8837 41.444C72.7631 40.5768 73.9554 40.089 75.1991 40.0876H130.046C131.289 40.089 132.482 40.5768 133.361 41.444C134.24 42.3111 134.735 43.4869 134.736 44.7132V57.9881H134.185V44.7132C134.184 43.6312 133.748 42.5938 132.971 41.8286C132.195 41.0635 131.143 40.6331 130.046 40.6318H75.1991C74.1017 40.6331 73.0497 41.0635 72.2737 41.8286C71.4978 42.5938 71.0614 43.6312 71.0602 44.7132V98.2722C71.0614 99.3543 71.4978 100.392 72.2737 101.157C73.0497 101.922 74.1017 102.352 75.1991 102.354H109.534V102.898Z" fill="#CBCDD2" class="cds-fill-neutral-3"/>
<path d="M70.7839 70.8354H45.7548C44.5112 70.8341 43.3188 70.3463 42.4395 69.4791C41.5601 68.6119 41.0654 67.4362 41.064 66.2098V22.6588C41.0654 21.4324 41.5601 20.2567 42.4395 19.3895C43.3188 18.5224 44.5112 18.0346 45.7548 18.0332H90.367C91.6107 18.0346 92.8029 18.5224 93.6823 19.3895C94.5618 20.2567 95.0563 21.4324 95.0577 22.6588V40.3598H94.5059V22.6588C94.5047 21.5767 94.0682 20.5393 93.2923 19.7742C92.5163 19.009 91.4643 18.5786 90.367 18.5774H45.7548C44.6574 18.5786 43.6054 19.009 42.8295 19.7742C42.0536 20.5393 41.6171 21.5767 41.6159 22.6588V66.2098C41.6171 67.2919 42.0536 68.3293 42.8295 69.0945C43.6054 69.8596 44.6574 70.29 45.7548 70.2913H70.7839V70.8354Z" fill="#CBCDD2" class="cds-fill-neutral-3"/>
<path d="M182.502 58.3125C183.074 58.6837 183.542 59.189 183.867 59.7831C184.191 60.3773 184.362 61.0416 184.362 61.7164V62.666H212.109C212.694 62.666 213.256 62.4367 213.67 62.0285C214.083 61.6203 214.316 61.0666 214.316 60.4893C214.316 59.912 214.083 59.3583 213.67 58.9501C213.256 58.5419 212.694 58.3125 212.109 58.3125H182.502Z" fill="#CBCDD2" class="cds-fill-neutral-3"/>
<path d="M184.653 52.0449C184.654 51.4678 184.886 50.9145 185.3 50.5065C185.713 50.0984 186.275 49.8688 186.86 49.8682H196.242C196.827 49.8682 197.389 50.0975 197.802 50.5057C198.216 50.9139 198.449 51.4676 198.449 52.0449C198.449 52.6222 198.216 53.1759 197.802 53.5841C197.389 53.9923 196.827 54.2217 196.242 54.2217H186.86C186.275 54.221 185.713 53.9915 185.3 53.5834C184.886 53.1753 184.654 52.622 184.653 52.0449Z" fill="#CBCDD2" class="cds-fill-neutral-3"/>
<path d="M205.694 34.7744C205.694 34.1973 205.927 33.6441 206.341 33.236C206.755 32.8279 207.315 32.5983 207.902 32.5977H244.323C244.908 32.5977 245.47 32.827 245.884 33.2352C246.298 33.6435 246.531 34.1971 246.531 34.7744C246.531 35.3518 246.298 35.9054 245.884 36.3136C245.47 36.7219 244.908 36.9512 244.323 36.9512H207.902C207.315 36.9505 206.755 36.721 206.341 36.3129C205.927 35.9048 205.694 35.3516 205.694 34.7744Z" fill="#CBCDD2" class="cds-fill-neutral-3"/>
<path d="M221.559 27.2844C221.56 26.7073 221.792 26.154 222.206 25.746C222.621 25.3379 223.182 25.1083 223.767 25.1077H228.458C229.043 25.1077 229.605 25.337 230.019 25.7452C230.432 26.1534 230.665 26.7071 230.665 27.2844C230.665 27.8617 230.432 28.4154 230.019 28.8236C229.605 29.2318 229.043 29.4612 228.458 29.4612H223.767C223.182 29.4605 222.621 29.231 222.206 28.8229C221.792 28.4148 221.56 27.8615 221.559 27.2844Z" fill="#CBCDD2" class="cds-fill-neutral-3"/>
<path d="M218.974 102.754H184.91C184.981 102.754 185.038 102.697 185.038 102.626C185.038 102.555 184.981 102.498 184.91 102.498L218.974 102.498L218.974 102.754ZM218.974 102.754L218.974 102.898L218.974 102.754Z" stroke="#CBCDD2" stroke-width="0.8" class="cds-stroke-neutral-3"/>
<path d="M251.344 19.7742C252.12 20.5393 252.556 21.5767 252.558 22.6588L251.344 19.7742Z" stroke="#CBCDD2" stroke-width="0.8" class="cds-stroke-neutral-3"/>
<path d="M173.385 89.791C172.791 89.791 172.211 89.967 171.718 90.2966C171.224 90.6263 170.84 91.0948 170.613 91.643C170.386 92.1911 170.326 92.7943 170.442 93.3763C170.558 93.9582 170.844 94.4928 171.263 94.9123C171.683 95.3319 172.217 95.6176 172.799 95.7334C173.381 95.8491 173.984 95.7897 174.533 95.5627C175.081 95.3356 175.549 94.9511 175.879 94.4577C176.209 93.9644 176.385 93.3844 176.385 92.791C176.382 91.9961 176.065 91.2344 175.503 90.6723C174.941 90.1102 174.179 89.7933 173.385 89.791ZM172.769 94.3905L171.231 92.853L171.662 92.4218L172.77 93.5295L175.108 91.1915L175.539 91.6227L172.769 94.3905Z" fill="#FE5000" class="cds-fill-accent-5"/>
<path d="M173.385 99.9502C172.791 99.9502 172.211 100.126 171.718 100.456C171.224 100.785 170.84 101.254 170.613 101.802C170.386 102.35 170.326 102.954 170.442 103.535C170.558 104.117 170.844 104.652 171.263 105.072C171.683 105.491 172.217 105.777 172.799 105.893C173.381 106.008 173.984 105.949 174.533 105.722C175.081 105.495 175.549 105.11 175.879 104.617C176.209 104.124 176.385 103.544 176.385 102.95C176.382 102.155 176.065 101.394 175.503 100.831C174.941 100.269 174.179 99.9525 173.385 99.9502ZM172.769 104.55L171.231 103.012L171.662 102.581L172.77 103.689L175.108 101.351L175.539 101.782L172.769 104.55Z" fill="#FE5000" class="cds-fill-accent-5"/>
<path d="M173.385 110.442C172.791 110.442 172.211 110.618 171.718 110.948C171.224 111.278 170.84 111.746 170.613 112.294C170.386 112.843 170.326 113.446 170.442 114.028C170.558 114.61 170.844 115.144 171.263 115.564C171.683 115.983 172.217 116.269 172.799 116.385C173.381 116.5 173.984 116.441 174.533 116.214C175.081 115.987 175.549 115.602 175.879 115.109C176.209 114.616 176.385 114.036 176.385 113.442C176.382 112.647 176.065 111.886 175.503 111.324C174.941 110.762 174.179 110.445 173.385 110.442ZM172.769 115.042L171.231 113.504L171.662 113.073L172.77 114.181L175.108 111.843L175.539 112.274L172.769 115.042Z" fill="#FE5000" class="cds-fill-accent-5"/>
<path d="M174.917 81.687H119.161C118.575 81.687 118.013 81.4576 117.6 81.0494C117.185 80.6412 116.952 80.0875 116.952 79.5102C116.952 78.9329 117.185 78.3792 117.6 77.971C118.013 77.5628 118.575 77.3335 119.161 77.3335H174.917C175.502 77.3335 176.064 77.5628 176.478 77.971C176.892 78.3792 177.125 78.9329 177.125 79.5102C177.125 80.0875 176.892 80.6412 176.478 81.0494C176.064 81.4576 175.502 81.687 174.917 81.687Z" fill="#54585F" class="cds-fill-neutral-7"/>
<path d="M159.032 73.8125H135.025C134.44 73.8125 133.878 73.5832 133.465 73.1749C133.051 72.7667 132.819 72.213 132.819 71.6357C132.819 71.0584 133.051 70.5048 133.465 70.0965C133.878 69.6883 134.44 69.459 135.025 69.459H159.032C159.617 69.459 160.179 69.6883 160.592 70.0965C161.006 70.5048 161.238 71.0584 161.238 71.6357C161.238 72.213 161.006 72.7667 160.592 73.1749C160.179 73.5832 159.617 73.8125 159.032 73.8125Z" fill="#54585F" class="cds-fill-neutral-7"/>
<path d="M143.028 94.9678H119.022C118.437 94.9678 117.875 94.7385 117.461 94.3303C117.047 93.922 116.814 93.3684 116.814 92.7911C116.814 92.2138 117.047 91.6601 117.461 91.2519C117.875 90.8436 118.437 90.6143 119.022 90.6143H143.028C143.613 90.6143 144.174 90.8436 144.588 91.2519C145.002 91.6601 145.235 92.2138 145.235 92.7911C145.235 93.3684 145.002 93.922 144.588 94.3303C144.174 94.7385 143.613 94.9678 143.028 94.9678Z" fill="#54585F" class="cds-fill-neutral-7"/>
<path d="M143.028 105.127H119.022C118.437 105.127 117.875 104.898 117.461 104.49C117.047 104.082 116.814 103.528 116.814 102.951C116.814 102.373 117.047 101.82 117.461 101.412C117.875 101.003 118.437 100.774 119.022 100.774H143.028C143.613 100.774 144.174 101.003 144.588 101.412C145.002 101.82 145.235 102.373 145.235 102.951C145.235 103.528 145.002 104.082 144.588 104.49C144.174 104.898 143.613 105.127 143.028 105.127Z" fill="#54585F" class="cds-fill-neutral-7"/>
<path d="M143.028 115.619H119.022C118.437 115.619 117.875 115.39 117.461 114.981C117.047 114.573 116.814 114.019 116.814 113.442C116.814 112.865 117.047 112.311 117.461 111.903C117.875 111.495 118.437 111.265 119.022 111.265H143.028C143.613 111.265 144.174 111.495 144.588 111.903C145.002 112.311 145.235 112.865 145.235 113.442C145.235 114.019 145.002 114.573 144.588 114.981C144.174 115.39 143.613 115.619 143.028 115.619Z" fill="#54585F" class="cds-fill-neutral-7"/>
<rect x="142.025" y="42.15" width="11.2" height="11.2" rx="1.6" stroke="#FE5000" stroke-width="0.8" class="cds-stroke-accent-5"/>
<path d="M149.054 48.097C150.161 49.9944 147.121 50.7355 145.958 49.5924L146.25 48.9785C148.14 50.5894 149.807 47.7991 146.918 48.0643V47.3916C149.564 47.602 148.077 44.9764 146.316 46.5296L146.031 45.9158C147.467 44.4461 150.69 46.2233 148.415 47.692C148.668 47.7506 148.894 47.8936 149.054 48.097Z" fill="#FE5000" class="cds-fill-accent-5"/>
<rect x="102.4" y="22.4396" width="11.2" height="11.2" rx="1.6" stroke="#CBCDD2" stroke-width="0.8" class="cds-stroke-neutral-3"/>
<path d="M107.423 30.337C107.285 30.3372 107.151 30.2933 107.04 30.2117L107.033 30.2067L105.594 29.1205C105.459 29.0187 105.371 28.8683 105.349 28.7023C105.327 28.5364 105.372 28.3686 105.476 28.2358C105.579 28.103 105.731 28.0161 105.9 27.9942C106.068 27.9722 106.238 28.0171 106.372 28.119L107.305 28.8242L109.509 25.9889C109.56 25.9232 109.624 25.868 109.696 25.8266C109.769 25.7851 109.849 25.7582 109.933 25.7474C110.016 25.7365 110.101 25.742 110.182 25.7634C110.263 25.7848 110.339 25.8217 110.406 25.8721V25.8723L110.392 25.891L110.406 25.8723C110.541 25.9742 110.629 26.1245 110.652 26.2904C110.673 26.4562 110.628 26.6239 110.525 26.7567L107.933 30.0902C107.873 30.167 107.795 30.2291 107.707 30.2718C107.618 30.3145 107.522 30.3365 107.424 30.3363L107.423 30.337Z" fill="#CBCDD2" class="cds-fill-neutral-3"/>
<rect x="182.4" y="24.4396" width="11.2" height="11.2" rx="1.6" stroke="#CBCDD2" stroke-width="0.8" class="cds-stroke-neutral-3"/>
<path d="M189.778 31.4566H189.109V32.3643H188.274V31.4566H186.222V30.8296L188.427 27.7148H189.109V30.7971H189.778V31.4566ZM188.274 30.7971V29.0273L187.03 30.7971H188.274Z" fill="#CBCDD2" class="cds-fill-neutral-3"/>
<rect x="62.4609" y="0.4" width="11.2" height="11.2" rx="1.6" stroke="#CBCDD2" stroke-width="0.8" class="cds-stroke-neutral-3"/>
<path d="M67.4836 8.29744C67.3457 8.29765 67.2118 8.25375 67.1013 8.17215L67.0942 8.16714L65.6552 7.08094C65.5203 6.97914 65.4321 6.82874 65.4098 6.66274C65.3875 6.49684 65.4331 6.32904 65.5365 6.19624C65.64 6.06344 65.7921 5.97654 65.9604 5.95464C66.1288 5.93264 66.2991 5.97754 66.433 6.07944L67.3659 6.78464L69.5696 3.94934C69.6213 3.88364 69.6852 3.82844 69.7572 3.78704C69.8302 3.74554 69.9103 3.71864 69.9934 3.70784C70.0766 3.69694 70.1618 3.70244 70.2429 3.72384C70.324 3.74524 70.4001 3.78214 70.467 3.83254V3.83274L70.4528 3.85144L70.467 3.83274C70.6019 3.93464 70.6901 4.08494 70.7124 4.25084C70.7337 4.41664 70.6891 4.58434 70.5857 4.71714L67.9937 8.05065C67.9338 8.12745 67.8557 8.18954 67.7675 8.23224C67.6793 8.27494 67.583 8.29695 67.4846 8.29674L67.4836 8.29744Z" fill="#CBCDD2" class="cds-fill-neutral-3"/>
<rect x="220.512" y="0.4" width="11.2" height="11.2" rx="1.6" stroke="#CBCDD2" stroke-width="0.8" class="cds-stroke-neutral-3"/>
<path d="M227.066 5.8273C227.288 5.94809 227.469 6.1295 227.589 6.3497C227.716 6.58806 227.78 6.85425 227.774 7.12347C227.781 7.40642 227.707 7.68548 227.563 7.93005C227.418 8.16591 227.206 8.35444 226.953 8.47198C226.665 8.60534 226.351 8.67127 226.032 8.66462C225.735 8.66436 225.44 8.61469 225.158 8.51769C224.898 8.43455 224.657 8.30018 224.45 8.1227L224.735 7.50876C225.104 7.81 225.567 7.98019 226.046 7.9921C226.293 8.00875 226.536 7.93029 226.725 7.77329C226.877 7.60134 226.961 7.38023 226.96 7.15167C226.959 6.92311 226.873 6.70288 226.718 6.53252C226.632 6.45347 226.53 6.39224 226.419 6.35243C226.308 6.31263 226.19 6.29504 226.073 6.3007C225.893 6.29954 225.715 6.33397 225.55 6.40193C225.386 6.46941 225.239 6.57072 225.119 6.69901H224.602V3.96289H227.555V4.6159H225.437V5.8827C225.688 5.71814 225.984 5.6338 226.285 5.64116C226.557 5.63552 226.826 5.69965 227.066 5.8273Z" fill="#CBCDD2" class="cds-fill-neutral-3"/>
<path d="M75.7816 141.72C75.6142 141.356 75.5297 140.96 75.5343 140.56C75.5389 140.16 75.6323 139.766 75.808 139.405C75.9837 139.045 76.2375 138.727 76.5514 138.473C76.8653 138.22 77.2317 138.038 77.6248 137.939L78.4612 128.251L82.4841 131.38L81.073 140.101C81.1972 140.763 81.0708 141.447 80.7176 142.023C80.3645 142.6 79.8092 143.029 79.1569 143.228C78.5047 143.428 77.8009 143.385 77.1787 143.107C76.5567 142.829 76.0596 142.336 75.7816 141.72Z" fill="#FDDADA" class="cds-fill-danger-2"/>
<path d="M78.3687 136.922C78.0793 136.884 77.8126 136.747 77.6156 136.534C77.4185 136.322 77.3038 136.047 77.2917 135.76L76.826 124.765C76.6586 120.814 77.4741 116.881 79.2016 113.312L83.3317 104.778C83.6083 104.265 84.0051 103.824 84.4892 103.492C84.9733 103.16 85.5306 102.947 86.1149 102.871C86.6821 102.792 87.2602 102.849 87.7999 103.038C88.3397 103.227 88.8252 103.542 89.2149 103.956C89.4126 104.164 89.5903 104.391 89.7455 104.631C90.0572 105.13 90.2376 105.697 90.2704 106.282C90.3033 106.866 90.1876 107.45 89.9338 107.979L83.6009 125.039L83.1136 136.154C83.1062 136.322 83.0636 136.487 82.9885 136.639C82.9134 136.79 82.8075 136.925 82.6772 137.034C82.547 137.143 82.3952 137.225 82.2316 137.273C82.068 137.322 81.8959 137.337 81.7262 137.317L78.3852 136.924L78.3687 136.922Z" fill="#006CD6" class="cds-fill-primary-5"/>
<path d="M66.5205 184.959L69.618 186.3L76.3363 175.156L71.7647 173.178L66.5205 184.959Z" fill="#FDDADA" class="cds-fill-danger-2"/>
<path d="M66.1741 183.62L72.2742 186.261H72.2744C72.7849 186.482 73.2463 186.8 73.6322 187.196C74.0181 187.593 74.321 188.061 74.5235 188.573C74.726 189.086 74.8242 189.632 74.8125 190.182C74.8008 190.731 74.6794 191.273 74.4553 191.777L74.4 191.901L64.4122 187.578L66.1741 183.62Z" fill="#54585F" class="cds-fill-neutral-7"/>
<path d="M108.106 188.668H111.488L113.098 175.801H108.105L108.106 188.668Z" fill="#FDDADA" class="cds-fill-danger-2"/>
<path d="M107.243 187.579H113.905C114.463 187.579 115.014 187.687 115.53 187.897C116.045 188.108 116.513 188.416 116.908 188.805C117.301 189.194 117.615 189.655 117.827 190.163C118.041 190.671 118.151 191.215 118.151 191.765V191.901L107.243 191.902V187.579Z" fill="#54585F" class="cds-fill-neutral-7"/>
<path d="M74.0338 185.009C73.9037 185.009 73.7744 184.989 73.6506 184.95L67.9147 183.132C67.605 183.032 67.3471 182.817 67.1962 182.532C67.0453 182.247 67.0133 181.916 67.1072 181.608L86.1283 121.879L100.376 119.124L100.426 119.205C109.845 134.319 112.989 157.407 114.984 181.87C115.008 182.189 114.906 182.506 114.697 182.752C114.489 182.998 114.192 183.154 113.87 183.187L107.598 183.806C107.305 183.836 107.012 183.762 106.77 183.598C106.528 183.433 106.352 183.189 106.277 182.908L94.7948 142.854C94.7723 142.772 94.7245 142.7 94.6582 142.646C94.5919 142.592 94.5102 142.56 94.4246 142.554C94.339 142.548 94.2536 142.569 94.1802 142.613C94.1069 142.657 94.0492 142.722 94.0153 142.8L75.1708 184.269C75.0756 184.488 74.9171 184.676 74.715 184.807C74.5129 184.939 74.276 185.009 74.0338 185.009Z" fill="#F2F2F3" class="cds-fill-neutral-1"/>
<path d="M93.4897 97.9625C97.2326 97.9625 100.267 94.9705 100.267 91.2796C100.267 87.5887 97.2326 84.5967 93.4897 84.5967C89.7469 84.5967 86.7126 87.5887 86.7126 91.2796C86.7126 94.9705 89.7469 97.9625 93.4897 97.9625Z" fill="#FDDADA" class="cds-fill-danger-2"/>
<path d="M84.9164 123.648L84.8699 123.552C84.8384 123.487 81.716 116.955 82.0066 109.421C82.1027 106.948 83.1536 104.605 84.9442 102.871C86.7347 101.137 89.1295 100.143 91.6386 100.093C93.9511 100.048 96.2053 100.81 98.0043 102.243C99.8033 103.676 101.032 105.69 101.473 107.929C102.343 112.309 102.321 116.458 101.408 120.26L101.388 120.344L101.302 120.362L84.9164 123.648Z" fill="#006CD6" class="cds-fill-primary-5"/>
<path d="M92.2778 90.8646C92.7773 90.0544 93.8795 89.8255 94.8365 89.9179C95.7935 90.0103 96.7241 90.342 97.6857 90.3347C100.356 90.3143 102.416 87.1054 101.294 84.7165C100.373 82.7573 98.0743 81.8971 95.9944 81.2219C91.6336 79.8062 86.6243 78.446 82.6672 80.7414C81.4062 81.4945 80.3719 82.566 79.6712 83.8451C78.9705 85.1242 78.6289 86.5646 78.6815 88.0175C78.7705 89.8239 79.4721 91.6795 78.8787 93.3909C78.1941 95.3652 76.0238 96.4244 73.9727 96.9368C70.3772 97.8351 66.5862 97.6904 62.9683 98.496C59.3503 99.3017 55.6428 101.441 54.6676 104.97C54.027 107.288 54.6954 109.783 55.8024 111.923C56.9317 114.107 58.5012 116.04 60.4148 117.604C62.3283 119.169 64.5455 120.331 66.9306 121.021C69.3158 121.711 71.8187 121.914 74.286 121.616C76.7532 121.319 79.133 120.528 81.2795 119.292C85.6534 116.774 88.8112 112.517 90.6938 107.88C91.7612 105.175 92.5126 102.36 92.9337 99.4871C93.3552 96.7982 92.9975 94.0808 92.2337 91.4662C92.1976 91.3685 92.1829 91.2644 92.1906 91.1608C92.1982 91.0571 92.2279 90.9562 92.2778 90.8646Z" fill="#54585F" class="cds-fill-neutral-7"/>
<path d="M140.295 192H35.1669C35.0937 192 35.0235 191.972 34.9718 191.921C34.92 191.87 34.891 191.8 34.891 191.728C34.891 191.656 34.92 191.587 34.9718 191.536C35.0235 191.485 35.0937 191.456 35.1669 191.456H140.295C140.369 191.456 140.439 191.485 140.49 191.536C140.542 191.587 140.57 191.656 140.57 191.728C140.57 191.8 140.542 191.87 140.49 191.921C140.439 191.972 140.369 192 140.295 192Z" fill="#54585F" class="cds-fill-neutral-7"/>
<path d="M109.66 62.5237C109.66 62.5236 109.66 62.5236 109.66 62.5235C109.663 61.4053 110.114 60.3326 110.918 59.5403C110.919 59.5385 110.921 59.5367 110.923 59.5349C111.726 58.7458 112.814 58.3005 113.95 58.298C113.951 58.298 113.951 58.2979 113.951 58.2979L109.66 62.5237ZM110.74 59.36L110.637 59.2555C111.516 58.3886 112.707 57.9004 113.951 57.8979L110.74 59.36ZM110.74 59.36C109.892 60.1989 109.413 61.3358 109.412 62.5233V62.5237H109.26L110.74 59.36Z" stroke="#54585F" stroke-width="0.8" class="cds-stroke-neutral-7"/>
<path d="M119.469 133.076C119.068 133.017 118.684 132.873 118.346 132.652C118.007 132.432 117.722 132.141 117.51 131.8C117.297 131.459 117.164 131.076 117.118 130.679C117.072 130.282 117.115 129.879 117.243 129.5L109.438 123.559L114.284 121.919L120.954 127.812C121.586 128.068 122.101 128.543 122.401 129.148C122.701 129.753 122.765 130.446 122.583 131.094C122.399 131.743 121.981 132.303 121.407 132.668C120.833 133.034 120.144 133.179 119.469 133.076Z" fill="#FDDADA" class="cds-fill-danger-2"/>
<path d="M100.313 119.98L100.295 119.951L92.0661 106.809C91.7784 106.302 91.6176 105.734 91.597 105.153C91.5765 104.573 91.6966 103.995 91.9477 103.469C92.1877 102.956 92.5498 102.508 93.0033 102.163C93.4568 101.818 93.9881 101.586 94.5521 101.487C94.8366 101.436 95.1255 101.411 95.4148 101.413C96.0084 101.425 96.5898 101.582 97.1061 101.872C97.6223 102.161 98.0571 102.573 98.3708 103.07L109.485 117.56L118.696 123.984C118.834 124.081 118.952 124.206 119.041 124.35C119.13 124.494 119.186 124.655 119.209 124.822C119.232 124.989 119.219 125.159 119.172 125.321C119.124 125.483 119.044 125.634 118.935 125.764L116.791 128.32C116.603 128.545 116.341 128.697 116.05 128.747C115.759 128.798 115.46 128.744 115.205 128.596L100.313 119.98Z" fill="#006CD6" class="cds-fill-primary-5"/>
</svg>