<svg width="100%" height="100%" viewBox="0 0 288 192" fill="none" xmlns="http://www.w3.org/2000/svg">
<path d="M105.501 58.9355C116.154 53.2587 130.827 55.4644 141.207 61.4793C144.594 63.4691 147.705 65.7611 150.484 68.314C152.104 69.7815 153.641 71.3221 155.11 72.9158C155.472 73.3067 155.832 73.7017 156.186 74.1005C156.427 74.3701 156.667 74.6416 156.905 74.915C159.885 78.335 162.617 81.933 165.291 85.4983C171.968 94.3985 178.818 103.564 188.991 109.812C191.087 111.099 194.011 112.258 196.158 111.029C198.021 109.962 198.101 107.718 197.677 105.879C196.101 99.0645 190.414 93.4177 184.372 88.5973C178.33 83.7769 171.642 79.3575 167.077 73.5328C162.512 67.7081 160.426 59.932 164.425 53.8316C167.871 48.5746 175.285 45.6258 182.522 45.4884C189.758 45.3524 196.789 47.675 202.912 50.8642C209.033 54.0548 214.417 58.1031 220.035 61.8725C223.421 64.1467 228.15 66.4032 231.84 64.4778C234.958 62.8506 235.201 58.9444 233.343 56.3143C231.485 53.6842 228.169 52.0313 224.99 50.4898C215.12 45.7023 205.25 40.9153 195.38 36.1286C192.352 34.6613 189.258 33.1472 187.023 30.9098C184.787 28.6737 183.546 25.531 184.778 22.8156C185.994 20.1397 189.389 18.4405 192.825 18.0859C196.258 17.7321 199.721 18.5181 202.932 19.5828C214.967 23.5737 243.306 49.6824 250.859 54.1462C255.713 57.0132 260.811 60.6427 261.302 65.5533C261.914 71.6666 254.547 76.7399 247.152 77.3329C239.759 77.9277 232.593 75.2732 225.986 72.4668C219.38 69.6604 212.638 66.5662 205.223 66.1766C197.808 65.7871 189.488 69.0599 187.731 75.0202C186.202 80.2065 190.088 85.5582 195.15 88.8766C199.112 91.4748 203.762 93.205 208.254 95.1506C209.501 95.6893 210.736 96.2462 211.939 96.8416C215.021 98.3689 217.902 100.157 220.535 102.177C223.299 104.295 225.78 106.651 227.936 109.205C229.656 111.24 231.157 113.396 232.421 115.648C232.614 115.992 232.801 116.34 232.983 116.694C233.155 117.032 233.321 117.374 233.479 117.72C235.541 122.204 236.344 127.229 233.71 131.415C231.083 135.59 225.393 138.062 219.711 138.405C216.424 138.567 213.131 138.208 210.008 137.347C207.711 136.731 205.488 135.942 203.366 134.99C193.529 130.63 185.741 123.717 178.628 116.609C171.517 109.503 164.821 102.02 156.379 95.9875C147.938 89.9535 137.36 85.3916 126.194 85.4609C115.029 85.5289 103.519 91.146 100.348 99.9848C95.7263 93.4087 92.6008 85.9121 93.0135 78.3171C93.4261 70.7222 97.7641 63.0588 105.501 58.9355Z" fill="#E5F0FB" class="cds-fill-primary-1"/>
<mask id="mask0_11479_3647" style="mask-type:alpha" maskUnits="userSpaceOnUse" x="92" y="18" width="170" height="121">
<path d="M105.36 59.0211C116.023 53.3324 130.71 55.5427 141.099 61.5702C144.489 63.5641 147.603 65.861 150.384 68.4191C152.006 69.8897 153.544 71.4336 155.014 73.0305C155.377 73.4224 155.737 73.8181 156.091 74.2177C156.333 74.4879 156.573 74.76 156.811 75.0339C159.793 78.4612 162.528 82.0667 165.205 85.6394C171.887 94.5582 178.744 103.742 188.926 110.004C191.024 111.294 193.95 112.455 196.099 111.224C197.964 110.154 198.044 107.905 197.62 106.062C196.042 99.2339 190.35 93.5753 184.303 88.7449C178.256 83.9144 171.561 79.4858 166.992 73.6489C162.423 67.812 160.335 60.0197 164.338 53.9065C167.787 48.6385 175.208 45.6835 182.451 45.5459C189.694 45.4096 196.731 47.737 202.859 50.9329C208.986 54.1301 214.374 58.1869 219.997 61.9643C223.387 64.2432 228.12 66.5044 231.814 64.5749C234.934 62.9443 235.177 59.0299 233.318 56.3943C231.458 53.7587 228.139 52.1024 224.957 50.5577C215.079 45.7602 205.2 40.9632 195.321 36.1665C192.29 34.6962 189.193 33.1788 186.956 30.9368C184.718 28.696 183.476 25.5467 184.709 22.8257C185.926 20.1442 189.325 18.4414 192.763 18.0861C196.199 17.7316 199.665 18.5192 202.88 19.5861C214.926 23.5853 243.29 49.7486 250.849 54.2218C255.708 57.0947 260.811 60.7318 261.302 65.6527C261.914 71.7788 254.541 76.8627 247.139 77.457C239.739 78.053 232.567 75.3929 225.955 72.5807C219.342 69.7684 212.594 66.6677 205.172 66.2773C197.751 65.887 189.424 69.1666 187.664 75.1394C186.134 80.3365 190.024 85.6994 195.09 89.0248C199.056 91.6284 203.71 93.3622 208.206 95.3119C209.455 95.8517 210.69 96.4098 211.895 97.0064C214.979 98.5369 217.863 100.329 220.498 102.353C223.265 104.475 225.748 106.836 227.906 109.396C229.628 111.435 231.13 113.596 232.395 115.852C232.588 116.197 232.776 116.546 232.957 116.9C233.129 117.239 233.296 117.582 233.454 117.928C235.517 122.422 236.321 127.458 233.685 131.652C231.056 135.836 225.36 138.313 219.673 138.657C216.384 138.819 213.087 138.459 209.962 137.596C207.663 136.979 205.438 136.188 203.314 135.234C193.468 130.865 185.673 123.938 178.554 116.816C171.436 109.694 164.734 102.196 156.285 96.1505C147.836 90.1039 137.248 85.5325 126.072 85.6019C114.897 85.6701 103.377 91.2989 100.203 100.156C95.5772 93.5664 92.4489 86.054 92.8619 78.4432C93.275 70.8324 97.6168 63.153 105.36 59.0211Z" fill="#E5F0FB" class="cds-fill-primary-1"/>
</mask>
<g mask="url(#mask0_11479_3647)">
<path d="M100.387 105.094L124.715 70.9791L154.391 91.4483L186.02 52.5168L205.478 64.5574L237.108 24.0205" stroke="#38948C" stroke-width="2.59017"/>
</g>
<path d="M102.69 84.6967C103.763 84.6967 104.633 83.9719 104.633 83.0778C104.633 82.1838 103.763 81.459 102.69 81.459C101.617 81.459 100.747 82.1838 100.747 83.0778C100.747 83.9719 101.617 84.6967 102.69 84.6967Z" fill="#E5F0FB" class="cds-fill-primary-1"/>
<path d="M107.528 106.856C108.091 107.744 105.175 106.885 103.647 106.344L99.1686 105.754C97.3526 105.119 94.0575 103.689 95.4056 103.052C96.591 102.492 97.8519 102.764 98.5159 103.042C98.2537 102.824 98.0085 102.259 98.2426 101.05C98.6272 99.0649 101.154 100.246 101.825 101.523C102.362 102.544 102.695 102.825 102.795 102.838C103.325 102.738 104.768 102.453 106.303 102.113C108.223 101.687 107.177 103.925 106.452 104.508C105.871 104.975 105.684 105.312 105.662 105.422C106.05 105.53 106.965 105.967 107.528 106.856Z" fill="#E5F0FB" class="cds-fill-primary-1"/>
<path d="M234.185 27.6324L210.83 57.7341M127.252 68.972L98.0591 106.699" stroke="#38948C" stroke-width="2.59017"/>
<path d="M100.1 110.599C102.603 110.599 104.633 109.004 104.633 107.037C104.633 105.07 102.603 103.476 100.1 103.476C97.5965 103.476 95.5671 105.07 95.5671 107.037C95.5671 109.004 97.5965 110.599 100.1 110.599Z" fill="#006CD6" class="cds-fill-primary-5"/>
<path d="M109.173 175.352H90.3793C89.5228 175.352 88.7018 175.044 88.0962 174.497C87.4906 173.95 87.15 173.208 87.149 172.434V112.869C87.15 112.095 87.4906 111.353 88.0962 110.806C88.7018 110.259 89.5228 109.952 90.3793 109.951H109.173C110.029 109.952 110.85 110.259 111.456 110.806C112.062 111.353 112.402 112.095 112.403 112.869V172.434C112.402 173.208 112.062 173.95 111.456 174.497C110.85 175.044 110.029 175.352 109.173 175.352Z" fill="#F2F2F3" class="cds-fill-neutral-1"/>
<path d="M104.69 111.894H94.8624C94.5342 111.893 94.2195 111.781 93.9874 111.581C93.7554 111.381 93.6248 111.109 93.6245 110.826V107.781C93.6248 107.498 93.7554 107.227 93.9874 107.026C94.2195 106.826 94.5342 106.714 94.8624 106.713H104.69C105.018 106.714 105.333 106.826 105.565 107.026C105.797 107.227 105.927 107.498 105.928 107.781V110.826C105.927 111.109 105.797 111.381 105.565 111.581C105.333 111.781 105.018 111.893 104.69 111.894Z" fill="#3C3F44" class="cds-fill-neutral-8"/>
<path d="M237.894 22.4699L238.394 30.9319L229.36 25.7209L237.894 22.4699Z" fill="#38948C"/>
<path d="M124.925 77.3294C127.618 77.3294 129.801 75.1462 129.801 72.453C129.801 69.7599 127.618 67.5767 124.925 67.5767C122.231 67.5767 120.048 69.7599 120.048 72.453C120.048 75.1462 122.231 77.3294 124.925 77.3294Z" fill="#006CD6" class="cds-fill-primary-5"/>
<path d="M154.183 96.0223C156.876 96.0223 159.059 93.8391 159.059 91.1459C159.059 88.4528 156.876 86.2695 154.183 86.2695C151.49 86.2695 149.306 88.4528 149.306 91.1459C149.306 93.8391 151.49 96.0223 154.183 96.0223Z" fill="#006CD6" class="cds-fill-primary-5"/>
<path d="M153.336 92.7717C153.23 92.7719 153.128 92.733 153.043 92.6609L153.038 92.6564L151.937 91.6958C151.886 91.6513 151.843 91.5957 151.811 91.5322C151.778 91.4688 151.757 91.3987 151.749 91.3259C151.74 91.2532 151.745 91.1792 151.761 91.1083C151.778 91.0374 151.806 90.971 151.846 90.9127C151.885 90.8545 151.934 90.8056 151.989 90.769C152.045 90.7323 152.107 90.7085 152.17 90.699C152.234 90.6894 152.299 90.6943 152.361 90.7134C152.423 90.7325 152.482 90.7654 152.532 90.8101L153.246 91.4338L154.931 88.9264C154.97 88.8683 155.019 88.8195 155.074 88.7829C155.13 88.7462 155.191 88.7224 155.255 88.7128C155.319 88.7032 155.383 88.708 155.445 88.7269C155.507 88.7459 155.566 88.7786 155.617 88.8231L155.617 88.8232L155.606 88.8398L155.617 88.8232C155.72 88.9134 155.787 89.0464 155.804 89.193C155.821 89.3397 155.786 89.488 155.708 89.6054L153.725 92.5534C153.679 92.6213 153.62 92.6763 153.553 92.714C153.485 92.7518 153.411 92.7713 153.336 92.771L153.336 92.7717Z" fill="white"/>
<path d="M205.385 68.3895C208.078 68.3895 210.261 66.2063 210.261 63.5131C210.261 60.8199 208.078 58.6367 205.385 58.6367C202.692 58.6367 200.509 60.8199 200.509 63.5131C200.509 66.2063 202.692 68.3895 205.385 68.3895Z" fill="#006CD6" class="cds-fill-primary-5"/>
<path d="M204.538 65.1389C204.432 65.1391 204.33 65.1002 204.245 65.0281L204.24 65.0236L203.139 64.063C203.088 64.0185 203.045 63.9629 203.013 63.8994C202.98 63.836 202.959 63.7658 202.951 63.6931C202.943 63.6204 202.947 63.5464 202.963 63.4755C202.98 63.4046 203.009 63.3382 203.048 63.2799C203.087 63.2217 203.136 63.1728 203.191 63.1361C203.247 63.0995 203.309 63.0757 203.372 63.0661C203.436 63.0566 203.501 63.0615 203.563 63.0806C203.625 63.0997 203.684 63.1325 203.735 63.1773L204.448 63.801L206.133 61.2936C206.172 61.2355 206.221 61.1867 206.276 61.15C206.332 61.1134 206.393 61.0896 206.457 61.08C206.521 61.0704 206.585 61.0752 206.647 61.0941C206.71 61.1131 206.768 61.1458 206.819 61.1903L206.819 61.1904L206.808 61.207L206.819 61.1904C206.922 61.2806 206.989 61.4135 207.006 61.5602C207.023 61.7068 206.988 61.8552 206.91 61.9726L204.927 64.9206C204.881 64.9885 204.823 65.0435 204.755 65.0812C204.688 65.1189 204.613 65.1384 204.538 65.1382L204.538 65.1389Z" fill="white"/>
<path d="M124.077 74.0783C123.972 74.0785 123.869 74.0396 123.785 73.9675L123.78 73.963L122.679 73.0025C122.628 72.958 122.585 72.9024 122.552 72.8389C122.52 72.7754 122.499 72.7053 122.491 72.6326C122.482 72.5598 122.486 72.4859 122.503 72.415C122.519 72.3441 122.548 72.2776 122.587 72.2194C122.626 72.1611 122.675 72.1123 122.731 72.0756C122.787 72.0389 122.848 72.0151 122.912 72.0056C122.976 71.9961 123.041 72.001 123.103 72.02C123.165 72.0391 123.223 72.072 123.274 72.1168L123.987 72.7405L125.673 70.2331C125.712 70.1749 125.76 70.1261 125.816 70.0895C125.872 70.0528 125.933 70.029 125.997 70.0195C126.06 70.0099 126.125 70.0147 126.187 70.0336C126.249 70.0525 126.307 70.0852 126.358 70.1298C126.461 70.2199 126.529 70.353 126.546 70.4996C126.563 70.6463 126.528 70.7946 126.449 70.9121L124.467 73.86C124.421 73.9279 124.362 73.9829 124.295 74.0207C124.227 74.0584 124.153 74.0786 124.077 74.0783Z" fill="white"/>
<path d="M124.985 175.929L28.4996 176C28.4261 176 28.3557 175.971 28.3038 175.919C28.2519 175.867 28.2227 175.796 28.2227 175.722C28.2227 175.649 28.2519 175.578 28.3038 175.526C28.3557 175.474 28.4261 175.445 28.4996 175.444L124.985 175.373C125.058 175.373 125.129 175.402 125.181 175.454C125.232 175.506 125.262 175.577 125.262 175.651C125.262 175.724 125.232 175.795 125.181 175.847C125.129 175.899 125.058 175.928 124.985 175.929Z" fill="#54585F" class="cds-fill-neutral-7"/>
<path d="M207.486 74.2327H206.399V73.1448C206.399 72.7738 206.251 72.4181 205.989 72.1558C205.727 71.8935 205.371 71.7461 205 71.7461C204.63 71.7461 204.274 71.8935 204.012 72.1558C203.75 72.4181 203.602 72.7738 203.602 73.1448V74.2327H202.515C202.144 74.2327 201.788 74.38 201.526 74.6423C201.264 74.9046 201.116 75.2604 201.116 75.6313C201.116 76.0023 201.264 76.3581 201.526 76.6204C201.788 76.8827 202.144 77.03 202.515 77.03H203.602V78.1179C203.602 78.4889 203.75 78.8446 204.012 79.1069C204.274 79.3692 204.63 79.5166 205 79.5166C205.371 79.5166 205.727 79.3692 205.989 79.1069C206.251 78.8446 206.399 78.4889 206.399 78.1179V77.03H207.486C207.857 77.0307 208.213 76.884 208.476 76.6221C208.738 76.3603 208.886 76.0048 208.887 75.6338C208.888 75.2629 208.741 74.9068 208.479 74.6441C208.217 74.3813 207.862 74.2333 207.491 74.2327H207.486Z" fill="#E5F0FB" class="cds-fill-primary-1"/>
<path d="M111.235 65.1937H110.329V64.3784C110.33 64.1004 110.208 63.8335 109.99 63.6365C109.772 63.4396 109.476 63.3286 109.167 63.3281C109.014 63.3279 108.863 63.3547 108.721 63.4072C108.58 63.4596 108.451 63.5366 108.343 63.6338C108.124 63.83 108.001 64.0965 108 64.3745V65.1938H107.094C106.941 65.1935 106.79 65.2204 106.649 65.2728C106.507 65.3253 106.379 65.4023 106.27 65.4995C106.162 65.5967 106.076 65.7121 106.017 65.8392C105.958 65.9663 105.928 66.1026 105.928 66.2402C105.927 66.3779 105.957 66.5143 106.016 66.6415C106.074 66.7688 106.159 66.8845 106.267 66.982C106.375 67.0795 106.504 67.157 106.645 67.2099C106.786 67.2628 106.937 67.2901 107.09 67.2904H108V68.1057C108 68.3838 108.122 68.6506 108.34 68.8476C108.558 69.0445 108.854 69.1555 109.163 69.156C109.472 69.1565 109.768 69.0466 109.987 68.8503C110.206 68.6541 110.329 68.3877 110.329 68.1096V67.2904H111.235C111.544 67.2912 111.841 67.1815 112.06 66.9854C112.279 66.7894 112.402 66.5231 112.403 66.245C112.404 65.967 112.282 65.7001 112.064 65.5029C111.847 65.3057 111.551 65.1945 111.242 65.1938H111.239L111.235 65.1937Z" fill="#006CD6" class="cds-fill-primary-5"/>
<path d="M162.508 33.9044H161.693V33.1797C161.693 32.9325 161.583 32.6953 161.387 32.5202C161.191 32.3452 160.924 32.2466 160.646 32.2461C160.509 32.2459 160.372 32.2697 160.245 32.3164C160.118 32.363 160.002 32.4314 159.905 32.5178C159.708 32.6922 159.597 32.9291 159.596 33.1762V33.9044H158.781C158.643 33.9042 158.507 33.9281 158.38 33.9747C158.253 34.0214 158.137 34.0898 158.039 34.1762C157.942 34.2626 157.864 34.3652 157.812 34.4782C157.759 34.5911 157.731 34.7123 157.731 34.8346C157.731 34.957 157.758 35.0782 157.81 35.1913C157.863 35.3045 157.94 35.4073 158.037 35.494C158.134 35.5807 158.249 35.6495 158.376 35.6965C158.504 35.7436 158.64 35.7679 158.777 35.7681H159.596V36.4929C159.596 36.74 159.706 36.9772 159.902 37.1523C160.098 37.3274 160.365 37.426 160.643 37.4264C160.92 37.4269 161.187 37.3292 161.384 37.1547C161.581 36.9803 161.692 36.7435 161.693 36.4963V35.7681H162.508C162.786 35.7688 163.053 35.6713 163.25 35.497C163.447 35.3228 163.558 35.086 163.559 34.8389C163.56 34.5918 163.45 34.3545 163.254 34.1792C163.058 34.004 162.792 33.9051 162.514 33.9044H162.512L162.508 33.9044Z" fill="#38948C"/>
<path d="M137.901 93.4782H137.086V92.7534C137.087 92.5062 136.977 92.2691 136.78 92.094C136.584 91.9189 136.318 91.8203 136.04 91.8198C135.902 91.8196 135.766 91.8435 135.639 91.8901C135.511 91.9367 135.396 92.0052 135.298 92.0915C135.101 92.266 134.99 92.5028 134.99 92.7499V93.4782H134.175C134.037 93.4779 133.901 93.5018 133.773 93.5485C133.646 93.5951 133.53 93.6636 133.433 93.7499C133.335 93.8363 133.258 93.9389 133.205 94.0519C133.152 94.1649 133.125 94.286 133.125 94.4084C133.124 94.5307 133.151 94.6519 133.204 94.7651C133.256 94.8782 133.333 94.9811 133.43 95.0677C133.527 95.1544 133.643 95.2233 133.77 95.2703C133.897 95.3173 134.033 95.3416 134.171 95.3418H134.99V96.0666C134.989 96.3137 135.099 96.5509 135.295 96.726C135.492 96.9011 135.758 96.9997 136.036 97.0002C136.314 97.0006 136.581 96.9029 136.778 96.7285C136.975 96.554 137.086 96.3172 137.086 96.0701V95.3418H137.901C138.179 95.3425 138.446 95.245 138.643 95.0708C138.84 94.8965 138.952 94.6598 138.952 94.4126C138.953 94.1655 138.843 93.9282 138.647 93.753C138.451 93.5777 138.185 93.4789 137.907 93.4782H137.905L137.901 93.4782Z" fill="#38948C"/>
<path d="M225.967 56.3607H225.152V55.7265C225.152 55.5103 225.042 55.3027 224.846 55.1496C224.65 54.9964 224.384 54.9101 224.106 54.9097C223.968 54.9095 223.832 54.9304 223.704 54.9712C223.577 55.0119 223.461 55.0718 223.364 55.1474C223.167 55.3 223.056 55.5073 223.056 55.7235V56.3607H222.24C222.103 56.3605 221.966 56.3814 221.839 56.4222C221.712 56.463 221.596 56.5229 221.499 56.5985C221.401 56.6741 221.324 56.7639 221.271 56.8627C221.218 56.9616 221.191 57.0676 221.19 57.1746C221.19 57.2817 221.217 57.3878 221.269 57.4868C221.322 57.5858 221.399 57.6757 221.496 57.7516C221.593 57.8274 221.709 57.8877 221.836 57.9288C221.963 57.97 222.099 57.9912 222.237 57.9914H223.056V58.6256C223.055 58.8418 223.165 59.0494 223.361 59.2026C223.557 59.3558 223.824 59.4421 224.102 59.4425C224.38 59.4429 224.647 59.3573 224.843 59.2047C225.04 59.0521 225.151 58.8449 225.152 58.6286V57.9914H225.967C226.245 57.992 226.512 57.9067 226.709 57.7543C226.906 57.6018 227.017 57.3946 227.018 57.1784C227.019 56.9621 226.909 56.7545 226.713 56.6012C226.517 56.4478 226.251 56.3613 225.973 56.3607H225.971L225.967 56.3607Z" fill="#38948C"/>
<path d="M97.9847 103.415C97.547 103.292 97.141 103.071 96.7951 102.768C96.4492 102.464 96.1719 102.087 95.9827 101.661C95.7936 101.235 95.6971 100.772 95.7002 100.304C95.7033 99.8353 95.8058 99.3733 96.0005 98.9503L88.1413 90.963L93.7463 89.7285L100.35 97.5026C101.017 97.8874 101.524 98.5113 101.775 99.2561C102.026 100.001 102.003 100.815 101.712 101.544C101.42 102.272 100.88 102.866 100.193 103.211C99.5058 103.556 98.7202 103.628 97.9847 103.415Z" fill="#FDDADA" class="cds-fill-danger-2"/>
<path d="M58.7138 39.2583L63.1782 42.2107L68.4039 43.4389C68.4039 43.4389 72.5484 73.1586 74.585 74.9412C76.6216 76.7239 74.9055 76.8929 75.4574 79.3518C76.0093 81.8108 77.2865 86.8414 77.2865 86.8414C64.8808 94.5568 53.798 95.4988 44.3424 88.1096C44.1948 87.6226 44.2175 87.0996 44.4067 86.6273C44.5959 86.155 44.9403 85.7618 45.3828 85.5128C46.9816 84.5163 43.5138 80.6126 44.8226 79.8308C46.1314 79.049 43.8187 73.2011 43.8187 73.2011L44.2222 60.6425L43.0986 58.7163L44.6814 46.3513L48.7617 44.5319L50.1587 40.377L58.7138 39.2583Z" fill="#006CD6" class="cds-fill-primary-5"/>
<path d="M67.9077 68.3873L72.0628 67.8419C72.0628 67.8419 72.464 73.7953 74.4516 74.6975C76.4392 75.5998 75.7692 75.7483 76.0035 76.7034C76.2379 77.6585 74.2361 80.3048 75.8105 80.963C77.385 81.6211 91.1458 98.1078 91.1458 98.1078L99.2644 90.9641C98.7065 89.5274 96.0215 90.6964 95.8531 89.1733C95.6412 86.8705 91.3915 80.5796 90.4871 79.773C89.5827 78.9664 89.9402 77.5445 89.4714 75.6343C89.0027 73.7241 89.3281 75.4953 88.5469 72.3116C87.7656 69.128 77.1783 52.9057 76.8101 49.9662C76.442 47.0267 72.1319 45.2964 72.1319 45.2964L68.7817 46.0388L67.9077 68.3873Z" fill="#3C3F44" class="cds-fill-neutral-8"/>
<path d="M35.8666 169.577L40.3575 170.75L47.0434 154.073L40.4153 152.341L35.8666 169.577Z" fill="#FDDADA" class="cds-fill-danger-2"/>
<path d="M58.8787 172.723L63.3329 172.722L65.4522 154.971L58.8777 154.972L58.8787 172.723Z" fill="#FDDADA" class="cds-fill-danger-2"/>
<path d="M47.3202 87.2144C46.2129 88.6077 46.7665 93.3448 46.7665 93.3448C46.7665 93.3448 44.8287 108.671 45.6592 110.064C46.4897 111.457 45.1056 112.572 44.2751 114.523C43.4446 116.473 42.6142 121.21 42.6142 121.21C37.9081 125.111 38.185 142.945 38.185 142.945L36.524 158.829C37.0777 160.501 44.8288 160.779 45.9361 160.501C47.0434 160.222 57.8395 120.932 57.8395 120.932C57.8395 120.932 57.2859 158.829 57.2859 160.501C57.2859 162.173 64.7602 161.337 66.4211 161.337C68.082 161.337 78.6014 93.0662 78.6014 93.0662V89.165L77.2173 87.2145C77.2173 87.2145 48.4275 85.8212 47.3202 87.2144Z" fill="#3C3F44" class="cds-fill-neutral-8"/>
<path d="M49.7354 41.231L43.0466 45.5986L39.8113 48.3781L44.1028 76.417C44.1028 76.417 37.5827 101.904 47.8579 100.333C58.133 98.7612 57.5569 75.8566 57.5569 75.8566L49.7354 41.231Z" fill="#3C3F44" class="cds-fill-neutral-8"/>
<path d="M58.6419 81.5193C58.2508 81.7723 57.8136 81.9285 57.3612 81.977C56.9088 82.0255 56.4521 81.9651 56.0234 81.8C55.5947 81.6349 55.2044 81.3691 54.8799 81.0214C54.5554 80.6737 54.3046 80.2525 54.1453 79.7875L43.0986 80.0789L46.1431 74.7612L56.1664 75.2997C56.8994 75.0591 57.6877 75.1205 58.382 75.4723C59.0762 75.8241 59.6282 76.4419 59.9334 77.2085C60.2385 77.9752 60.2756 78.8374 60.0375 79.6319C59.7995 80.4264 59.3029 81.0979 58.6419 81.5193Z" fill="#FDDADA" class="cds-fill-danger-2"/>
<path d="M53.2892 41.2441C58.1911 41.2441 62.1649 37.2703 62.1649 32.3684C62.1649 27.4665 58.1911 23.4927 53.2892 23.4927C48.3873 23.4927 44.4135 27.4665 44.4135 32.3684C44.4135 37.2703 48.3873 41.2441 53.2892 41.2441Z" fill="#FDDADA" class="cds-fill-danger-2"/>
<path d="M43.4451 26.0272C44.4303 24.4765 46.2791 23.443 48.0713 23.7334C48.2382 22.5697 48.7156 21.4748 49.4516 20.568C50.1877 19.6613 51.1542 18.9773 52.2458 18.5907C53.3375 18.2041 54.5125 18.1295 55.6429 18.3753C56.7732 18.621 57.8157 19.1776 58.6567 19.9843C58.9333 19.7862 59.2555 19.6641 59.5921 19.6298C59.9286 19.5956 60.2682 19.6503 60.5779 19.7887C61.1947 20.0741 61.7314 20.5123 62.1387 21.0634C63.1671 22.3682 63.8285 23.9324 64.0526 25.5894C64.2766 27.2463 64.0548 28.9341 63.4108 30.473C63.6298 29.6628 62.8318 28.9007 62.0255 28.7189C61.2192 28.5371 60.3735 28.7091 59.5558 28.5907C58.5079 28.439 57.5659 27.8204 56.5163 27.6813C55.6342 27.5643 54.7471 27.7944 53.8869 28.025C53.0267 28.2557 52.1419 28.4908 51.2585 28.3841C50.3751 28.2774 49.2372 31.6835 49.2524 34.0826C49.2553 34.5372 49.1633 35.1209 48.7266 35.2174C48.1888 35.3362 47.8772 34.581 47.3653 34.3752C47.1294 34.3064 46.8764 34.3335 46.6597 34.4507C46.4431 34.568 46.2796 34.7662 46.2037 35.0037C46.1392 35.2451 46.1323 35.4987 46.1836 35.7433C46.2349 35.988 46.3428 36.2167 46.4985 36.4103C46.8131 36.7942 47.1867 37.1239 47.6046 37.3866L47.3938 37.565C47.0431 38.0363 46.3157 38.0567 45.8103 37.7651C45.327 37.4321 44.9355 36.9786 44.6733 36.448C43.7382 34.8656 42.918 33.1796 42.588 31.3639C42.2579 29.5483 42.4599 27.5779 43.4451 26.0272Z" fill="#54585F" class="cds-fill-neutral-7"/>
<path d="M46.2342 49.2738L42.3108 45.8335C42.3108 45.8335 37.7298 47.2961 36.953 50.371C30.8391 58.3701 27.5465 67.7123 26.6621 78.2009C34.6442 81.2856 44.4181 82.3799 54.9329 82.6512L52.7582 74.3069L37.8073 71.5254L46.2342 49.2738Z" fill="#3C3F44" class="cds-fill-neutral-8"/>
<path d="M35.2091 171.853L48.1447 175.352L48.1876 175.184C48.5382 173.808 48.3441 172.345 47.6479 171.117C46.9516 169.889 45.8104 168.996 44.4751 168.634L44.4748 168.634L42.5828 166.148L37.7034 166.802L36.5742 166.497L35.2091 171.853Z" fill="#3C3F44" class="cds-fill-neutral-8"/>
<path d="M58.2204 175.353L72.0268 175.352V175.183C72.0267 173.802 71.4605 172.477 70.4528 171.5C69.445 170.524 68.0782 169.975 66.653 169.975H66.6527L64.1307 168.121L59.4254 169.975L58.2202 169.975L58.2204 175.353Z" fill="#3C3F44" class="cds-fill-neutral-8"/>
<path d="M60.1925 40.5732L67.5275 43.01C67.5275 43.01 75.6414 42.1553 75.9701 54.2053C76.2989 66.2554 74.7868 72.7216 74.7868 72.7216C74.7868 72.7216 91.665 106.583 73.382 96.5822L68.0392 75.5943L62.5328 42.6333L60.1925 40.5732Z" fill="#3C3F44" class="cds-fill-neutral-8"/>
</svg>
