<svg width="100%" height="100%" viewBox="0 0 288 192" fill="none" xmlns="http://www.w3.org/2000/svg">
<path d="M157.303 171.675C182.062 181.137 210.785 167.129 228.595 142.786C233.844 135.601 238.275 127.114 240.233 117.519C242.604 105.899 241.186 93.3922 237.861 82.1777C232.847 65.2663 223.298 50.4422 210.866 42.3286C198.434 34.2151 183.152 33.2158 170.569 40.9377C163.565 45.2357 157.222 52.1441 149.531 53.2907C137.757 55.0451 127.796 43.0352 117.141 36.2722C109.847 31.6431 101.825 29.3861 93.8866 27.1977C84.8868 24.7146 75.3621 22.3042 66.655 26.1702C59.4438 29.374 53.5913 36.6841 49.7112 45.2337C45.8311 53.7833 43.7598 63.526 42.4072 73.295C41.5593 79.4261 40.9779 85.7106 41.6663 91.868C42.383 98.2999 44.4684 104.385 47.1877 109.821C53.3248 122.106 62.6255 131.271 72.6791 137.836C82.7327 144.401 93.5918 148.556 104.411 152.549C123.858 159.744 137.244 168.011 157.255 171.716L157.303 171.675Z" fill="#E5F0FB" class="cds-fill-primary-1"/>
<path d="M98.193 32.5503H188.049C188.877 32.5503 189.549 33.2219 189.549 34.0503V95.213C189.549 96.0414 188.877 96.713 188.049 96.713H98.193C97.3646 96.713 96.693 96.0414 96.693 95.213V34.0503C96.693 33.2219 97.3646 32.5503 98.193 32.5503Z" fill="white" stroke="#CBCDD2" class="cds-stroke-neutral-3"/>
<path d="M119.824 38.4863H111.295C110.743 38.4863 110.295 38.934 110.295 39.4863V48.0144C110.295 48.5667 110.743 49.0144 111.295 49.0144H119.824C120.376 49.0144 120.824 48.5667 120.824 48.0144V39.4863C120.824 38.934 120.376 38.4863 119.824 38.4863Z" fill="#CBCDD2" class="cds-fill-neutral-3"/>
<path d="M174.946 39.7505H126.824C126.271 39.7505 125.824 40.1982 125.824 40.7505V41.7505C125.824 42.3028 126.271 42.7505 126.824 42.7505H174.946C175.499 42.7505 175.946 42.3028 175.946 41.7505V40.7505C175.946 40.1982 175.499 39.7505 174.946 39.7505Z" fill="#CBCDD2" class="cds-fill-neutral-3"/>
<path d="M140.387 44.7505H126.824C126.271 44.7505 125.824 45.1982 125.824 45.7505V46.7505C125.824 47.3028 126.271 47.7505 126.824 47.7505H140.387C140.939 47.7505 141.387 47.3028 141.387 46.7505V45.7505C141.387 45.1982 140.939 44.7505 140.387 44.7505Z" fill="#CBCDD2" class="cds-fill-neutral-3"/>
<path d="M119.824 57.8513H111.295C110.743 57.8513 110.295 58.299 110.295 58.8513V67.3794C110.295 67.9317 110.743 68.3794 111.295 68.3794H119.824C120.376 68.3794 120.824 67.9317 120.824 67.3794V58.8513C120.824 58.299 120.376 57.8513 119.824 57.8513Z" fill="#006CD6" class="cds-fill-primary-5"/>
<path d="M174.946 59.1155H126.824C126.271 59.1155 125.824 59.5632 125.824 60.1155V61.1155C125.824 61.6678 126.271 62.1155 126.824 62.1155H174.946C175.499 62.1155 175.946 61.6678 175.946 61.1155V60.1155C175.946 59.5632 175.499 59.1155 174.946 59.1155Z" fill="#006CD6" class="cds-fill-primary-5"/>
<path d="M140.387 64.1155H126.824C126.271 64.1155 125.824 64.5632 125.824 65.1155V66.1155C125.824 66.6678 126.271 67.1155 126.824 67.1155H140.387C140.939 67.1155 141.387 66.6678 141.387 66.1155V65.1155C141.387 64.5632 140.939 64.1155 140.387 64.1155Z" fill="#006CD6" class="cds-fill-primary-5"/>
<path d="M119.824 77.2163H111.295C110.743 77.2163 110.295 77.664 110.295 78.2163V86.7444C110.295 87.2967 110.743 87.7444 111.295 87.7444H119.824C120.376 87.7444 120.824 87.2967 120.824 86.7444V78.2163C120.824 77.664 120.376 77.2163 119.824 77.2163Z" fill="#CBCDD2" class="cds-fill-neutral-3"/>
<path d="M174.946 78.4805H126.824C126.271 78.4805 125.824 78.9282 125.824 79.4805V80.4805C125.824 81.0328 126.271 81.4805 126.824 81.4805H174.946C175.499 81.4805 175.946 81.0328 175.946 80.4805V79.4805C175.946 78.9282 175.499 78.4805 174.946 78.4805Z" fill="#CBCDD2" class="cds-fill-neutral-3"/>
<path d="M140.387 83.4805H126.824C126.271 83.4805 125.824 83.9282 125.824 84.4805V85.4805C125.824 86.0328 126.271 86.4805 126.824 86.4805H140.387C140.939 86.4805 141.387 86.0328 141.387 85.4805V84.4805C141.387 83.9282 140.939 83.4805 140.387 83.4805Z" fill="#CBCDD2" class="cds-fill-neutral-3"/>
<path d="M99.1649 103.77H189.301C190.129 103.77 190.801 104.441 190.801 105.27V156.34C190.801 157.169 190.129 157.84 189.301 157.84H99.1649C98.3365 157.84 97.6649 157.169 97.6649 156.34V105.27C97.6649 104.441 98.3365 103.77 99.1649 103.77Z" fill="white" stroke="#CBCDD2" class="cds-stroke-neutral-3"/>
<path d="M160.61 118.215H155.118V123.708H160.61V118.215Z" fill="#FE5000" class="cds-fill-accent-5"/>
<path opacity="0.5" d="M169.671 118.215H164.178V123.708H169.671V118.215Z" fill="#FE5000" class="cds-fill-accent-5"/>
<path opacity="0.2" d="M178.731 118.215H173.238V123.708H178.731V118.215Z" fill="#FE5000" class="cds-fill-accent-5"/>
<path d="M160.61 127.275H155.118V132.768H160.61V127.275Z" fill="#006CD6" class="cds-fill-primary-5"/>
<path opacity="0.5" d="M169.671 127.275H164.178V132.768H169.671V127.275Z" fill="#006CD6" class="cds-fill-primary-5"/>
<path opacity="0.2" d="M178.731 127.275H173.238V132.768H178.731V127.275Z" fill="#006CD6" class="cds-fill-primary-5"/>
<path d="M160.61 136.335H155.118V141.828H160.61V136.335Z" fill="#352808" class="cds-fill-warning-9"/>
<path opacity="0.5" d="M169.671 136.335H164.178V141.828H169.671V136.335Z" fill="#352808" class="cds-fill-warning-9"/>
<path opacity="0.2" d="M178.731 136.335H173.238V141.828H178.731V136.335Z" fill="#352808" class="cds-fill-warning-9"/>
<path d="M126.85 147.257C135.936 147.257 143.302 139.891 143.302 130.805C143.302 121.719 135.936 114.353 126.85 114.353C117.763 114.353 110.397 121.719 110.397 130.805C110.397 139.891 117.763 147.257 126.85 147.257Z" fill="#006CD6" class="cds-fill-primary-5"/>
<path fill-rule="evenodd" clip-rule="evenodd" d="M126.5 147.254V114.357C126.616 114.354 126.733 114.353 126.85 114.353C135.923 114.353 143.282 121.699 143.302 130.768V130.843C143.282 139.876 135.981 147.2 126.957 147.257L126.742 147.257C126.661 147.257 126.581 147.256 126.5 147.254Z" fill="#004180" class="cds-fill-primary-7"/>
<path d="M212.581 112.089C212.581 112.089 222.194 116.437 218.761 121.472C215.328 126.508 205.028 136.12 204.799 138.18C204.571 140.24 203.197 142.071 203.197 142.071C203.197 142.071 198.62 137.264 199.078 136.807C199.535 136.349 204.113 132 204.342 130.856C204.571 129.712 211.437 120.786 211.437 120.786L205.257 115.293L212.581 112.089Z" fill="#FDDADA" class="cds-fill-danger-2"/>
<path d="M200.616 122.428C200.616 122.428 207.254 125.175 206.796 129.523C206.338 133.872 214.806 146.231 214.806 146.231C214.806 146.231 215.722 149.206 215.493 150.122C215.264 151.037 221.444 150.809 221.444 150.809V148.749C221.444 148.749 216.637 140.509 216.18 138.221C215.722 135.932 212.975 127.006 212.975 127.006C212.975 127.006 212.06 118.995 207.483 118.995C206.15 118.995 204.836 119.306 203.644 119.901C202.452 120.497 201.416 121.363 200.616 122.428Z" fill="#FDDADA" class="cds-fill-danger-2"/>
<path d="M184.343 101.941C184.343 101.941 182.969 108.12 186.631 110.638C190.293 113.155 196.473 122.997 197.159 122.997C197.846 122.997 207.688 117.733 207.23 116.817C206.772 115.902 201.737 107.891 201.737 107.891L200.135 99.423C200.135 99.423 186.174 98.9653 184.343 101.941Z" fill="#F2F2F3" class="cds-fill-neutral-1"/>
<path d="M201 79.7283L203.06 93.0028L206.722 102.387C206.722 102.387 212.215 108.108 209.011 108.566C205.806 109.024 203.975 102.387 203.975 102.387L201 96.8936V79.7283Z" fill="#FDDADA" class="cds-fill-danger-2"/>
<path d="M192.217 63.2285C192.217 63.2285 192.217 68.0348 190.615 68.4926C189.013 68.9503 197.023 75.1298 197.023 75.1298C197.023 75.1298 196.108 67.1193 199.312 65.0595L192.217 63.2285Z" fill="#FDDADA" class="cds-fill-danger-2"/>
<path d="M195.904 66.3382C198.811 66.3382 201.168 63.9814 201.168 61.0741C201.168 58.1669 198.811 55.8101 195.904 55.8101C192.996 55.8101 190.64 58.1669 190.64 61.0741C190.64 63.9814 192.996 66.3382 195.904 66.3382Z" fill="#FDDADA" class="cds-fill-danger-2"/>
<path d="M195.28 73.2981C195.28 73.2981 190.474 67.3474 189.788 67.5763C189.101 67.8051 184.066 72.8403 183.608 74.4424C183.15 76.0445 182.235 87.4881 182.921 89.7768C183.608 92.0655 183.608 98.0162 183.379 98.4739C183.15 98.9317 181.777 100.076 183.15 100.076C184.524 100.076 189.33 96.643 192.534 97.3296C195.738 98.0162 200.087 97.1007 200.316 96.643C200.544 96.1852 200.087 84.2839 200.316 83.3684C200.544 82.4529 199.858 77.8755 199.629 76.96C199.4 76.0445 199.4 72.3826 197.111 71.4671L196.136 71.3706L196.081 73.6345L195.28 73.2981Z" fill="#004180" class="cds-fill-primary-7"/>
<path d="M199.785 138.81C199.785 138.81 197.153 138.237 196.237 139.839C195.322 141.442 197.153 145.79 197.153 145.79C197.153 145.79 202.417 156.776 203.332 155.403C204.248 154.03 202.646 148.994 202.646 148.994C202.646 148.994 204.935 143.959 204.019 143.73C203.104 143.501 199.785 141.556 199.785 138.81Z" fill="#352808" class="cds-fill-warning-9"/>
<path d="M217.989 153.315C217.989 153.315 216.615 152.628 216.387 153.315C216.158 154.001 214.785 157.435 216.387 157.892C217.989 158.35 233.781 158.808 233.323 157.892C232.865 156.977 230.348 155.832 228.746 155.375C227.144 154.917 223.024 151.484 223.024 151.484C223.024 151.484 220.735 154.459 217.989 153.315Z" fill="#352808" class="cds-fill-warning-9"/>
<path d="M202.45 57.024C202.34 56.6527 202.097 56.3352 201.767 56.132C201.784 55.7343 201.735 55.3366 201.623 54.9548C201.247 53.8434 200.356 53.9071 199.516 53.4158C199.151 53.2026 199.174 53.0142 198.984 52.664C198.735 52.205 198.363 51.825 197.909 51.5672C197.37 51.2237 196.801 50.87 196.163 50.8265C194.823 50.7351 193.796 51.9957 192.515 52.4003C191.95 52.5786 191.343 52.5859 190.776 52.7545C190.208 52.9231 189.642 53.3256 189.557 53.9116C189.518 54.1821 189.587 54.4597 189.548 54.7301C189.469 55.2677 188.997 55.6442 188.681 56.0863C187.983 57.0641 188.063 58.4454 188.621 59.5092C188.739 59.7294 188.874 59.94 189.024 60.1392C189.071 60.6421 189.215 61.131 189.449 61.5784C190.007 62.6422 190.968 63.4372 191.972 64.0977C191.89 63.7448 191.84 63.3853 191.823 63.0234C191.809 62.9028 191.824 62.7806 191.869 62.6674C191.98 62.4338 192.276 62.3717 192.501 62.2437C192.967 61.9787 193.15 61.3921 193.164 60.8559C193.177 60.3196 193.064 59.7824 193.12 59.2489C193.122 59.1263 193.15 59.0054 193.202 58.8941C193.253 58.7829 193.328 58.6837 193.42 58.6031C193.592 58.5049 193.789 58.458 193.987 58.468C194.943 58.429 195.941 58.4114 196.784 57.9595C197.056 57.779 197.348 57.6311 197.654 57.5191C198.371 57.3323 199.103 57.8344 199.516 58.4489C199.929 59.0634 200.134 59.7946 200.515 60.4294C200.896 61.0642 201.554 61.6303 202.291 61.5551C202.332 61.5552 202.373 61.5465 202.411 61.5296C202.449 61.5128 202.483 61.4881 202.511 61.4573C202.542 61.4002 202.557 61.335 202.551 61.2699L202.592 58.4548C202.627 57.9732 202.578 57.4894 202.45 57.024Z" fill="#352808" class="cds-fill-warning-9"/>
<path d="M187.385 74.2283C187.385 74.2283 192.42 76.517 192.191 81.3233C191.962 86.1296 193.565 86.5873 189.674 87.0451C185.783 87.5028 184.867 87.0451 184.639 87.5028C184.41 87.9606 183.036 76.9747 183.952 75.8304C184.867 74.686 187.385 74.2283 187.385 74.2283Z" fill="#004180" class="cds-fill-primary-7"/>
<path d="M200.505 99.6816C200.505 99.6816 214.237 110.896 213.78 111.812C213.322 112.727 206.685 116.16 205.54 116.389C204.396 116.618 196.299 99.6816 196.299 99.6816H200.505Z" fill="#F2F2F3" class="cds-fill-neutral-1"/>
<path d="M185.523 87.2749C185.523 87.2749 185.981 94.3699 189.414 97.3453C192.847 100.321 200.171 105.356 200.629 106.271C201.087 107.187 205.435 111.993 206.351 109.933C206.616 109.291 206.68 108.583 206.534 107.904C206.401 107.229 206.132 106.588 205.742 106.02C205.352 105.453 204.85 104.971 204.268 104.605L202.231 103.296L192.161 92.7678L191.703 87.2749H185.523Z" fill="#FDDADA" class="cds-fill-danger-2"/>
<path d="M69.897 142.035L74.0167 153.25C74.0167 153.25 77.4498 155.996 75.39 156.912C73.3301 157.827 69.2104 155.996 69.2104 155.996L66.0062 147.757L66.464 142.035H69.897Z" fill="#352808" class="cds-fill-warning-9"/>
<path d="M68.178 146.658L65.6604 156.042C65.6604 156.042 65.4315 159.475 64.2872 159.704C63.1428 159.933 59.7097 158.559 59.7097 158.102C59.7097 157.644 61.0829 153.982 61.0829 153.982C61.0829 153.982 61.0829 151.235 62.4562 150.091C63.8294 148.947 65.0666 145.113 65.0666 145.113L68.178 146.658Z" fill="#54585F" class="cds-fill-neutral-7"/>
<path d="M74.9097 67.8187C70.8649 67.8187 67.5858 64.5397 67.5858 60.4948C67.5858 56.4499 70.8649 53.1709 74.9097 53.1709C78.9546 53.1709 82.2336 56.4499 82.2336 60.4948C82.2336 64.5397 78.9546 67.8187 74.9097 67.8187Z" fill="#54585F" class="cds-fill-neutral-7"/>
<path d="M69.897 142.035L74.0167 153.25C74.0167 153.25 77.4498 155.996 75.39 156.912C73.3301 157.827 69.2104 155.996 69.2104 155.996L66.0062 147.757L66.464 142.035H69.897Z" fill="#54585F" class="cds-fill-neutral-7"/>
<path d="M102.902 97.8933C102.902 97.8933 107.708 99.9532 108.624 100.182C109.539 100.411 110.913 102.7 109.311 103.157C107.708 103.615 101.529 99.0377 101.529 99.0377L102.902 97.8933Z" fill="#FDDADA" class="cds-fill-danger-2"/>
<path d="M65.0739 124.522C64.6116 125.6 64.6688 133.421 65.1746 138.625C65.4195 141.154 65.7697 143.065 66.2183 143.29L69.498 142.47L70.7957 142.145L70.83 139.298L71.0246 123.607L74.9154 107.357V103.237L65.0739 104.153L63.513 106.604L63.4718 106.67C63.4718 106.67 65.7605 122.92 65.0739 124.522Z" fill="#54585F" class="cds-fill-neutral-7"/>
<path d="M83.5278 93.8989C83.5278 93.8989 86.732 100.994 82.1546 110.835C79.3221 116.96 76.8013 123.224 74.6019 129.603C74.6019 129.603 72.9997 137.156 70.711 141.962C68.4223 146.768 68.8801 146.997 68.8801 146.997L65.2181 144.937C65.2181 144.937 67.278 130.747 68.1934 129.374C69.1089 128.001 69.1089 124.11 69.1089 124.11L71.6265 114.726L73.6864 105.8L63.616 106.487C63.616 106.487 63.616 93.4412 68.1934 90.9236L83.5278 93.8989Z" fill="#54585F" class="cds-fill-neutral-7"/>
<path d="M79.7583 64.0901C79.7583 64.0901 79.7583 67.752 80.9026 67.9809C82.047 68.2098 84.3357 68.2098 85.0223 69.3541C85.709 70.4985 79.7583 85.604 79.7583 85.604L73.5787 81.7132L71.5189 71.414C71.5189 71.414 74.4942 69.583 74.4942 68.6675V64.5478L79.7583 64.0901Z" fill="#FDDADA" class="cds-fill-danger-2"/>
<path d="M76.1599 67.99C73.1262 67.99 70.667 65.5307 70.667 62.4971C70.667 59.4634 73.1262 57.0042 76.1599 57.0042C79.1935 57.0042 81.6528 59.4634 81.6528 62.4971C81.6528 65.5307 79.1935 67.99 76.1599 67.99Z" fill="#FDDADA" class="cds-fill-danger-2"/>
<path d="M79.1606 81.085C79.1606 81.085 81.2205 68.0393 81.6782 68.0393C82.136 68.0393 88.5444 69.4125 89.0021 69.6414C89.4599 69.8703 91.062 71.9301 91.062 71.9301L87.8578 81.085C87.8578 81.085 86.4845 87.4934 85.569 88.6378C84.6536 89.7821 82.8226 92.9863 83.7381 93.4441C84.6536 93.9018 85.569 94.5884 84.6536 94.5884C83.7381 94.5884 76.1853 93.2152 75.7276 93.9018C75.2698 94.5884 67.7171 91.3842 67.7171 91.1554C67.7171 90.9265 68.6326 80.1695 68.6326 80.1695L66.3438 74.9055L73.21 70.0992L79.1606 81.085Z" fill="#FE5000" class="cds-fill-accent-5"/>
<path d="M88.9597 70.8279L91.2484 71.9722C91.2484 71.9722 97.6568 86.62 98.1146 86.8489C98.5723 87.0778 100.861 91.4263 101.09 92.3418C101.319 93.2573 101.777 96.2326 102.463 96.6904C102.831 96.9405 103.213 97.1697 103.607 97.377C103.607 97.377 102.234 99.6657 101.548 99.6657C100.861 99.6657 98.5723 96.4615 98.5723 96.4615C98.5723 96.4615 93.5371 99.6657 92.1639 97.1481C90.7907 94.6305 87.3576 78.6095 87.3576 78.6095L88.9597 70.8279Z" fill="#FE5000" class="cds-fill-accent-5"/>
<path d="M70.5854 77.8085C70.5854 77.8085 73.7896 70.0268 75.6206 70.9423C77.4516 71.8578 74.2474 77.3507 72.1875 78.2662L70.5854 77.8085Z" fill="#FDDADA" class="cds-fill-danger-2"/>
<path d="M73.0859 77.67L69.8747 76.9441L69.1951 80.4165C69.1951 80.4165 66.2198 85.6805 66.9064 87.9692C67.593 90.258 71.7127 93.9199 73.0859 91.8601C74.4592 89.8002 75.6035 86.596 74.688 84.765C73.7725 82.9341 72.3993 78.5855 73.0859 77.67Z" fill="#FE5000" class="cds-fill-accent-5"/>
<path d="M69.6847 61.4264C69.068 60.11 70.7951 57.9997 73.5423 56.7127C76.2894 55.4258 79.0163 55.4496 79.633 56.766C80.2496 58.0823 78.5225 60.1927 75.7754 61.4796C73.0282 62.7666 70.3013 62.7427 69.6847 61.4264Z" fill="#54585F" class="cds-fill-neutral-7"/>
<path d="M70.4334 57.4887C68.6638 57.4887 67.2292 56.0542 67.2292 54.2845C67.2292 52.5149 68.6638 51.0803 70.4334 51.0803C72.203 51.0803 73.6376 52.5149 73.6376 54.2845C73.6376 56.0542 72.203 57.4887 70.4334 57.4887Z" fill="#54585F" class="cds-fill-neutral-7"/>
<path d="M73.4157 53.1227C73.4156 52.3324 73.1234 51.57 72.5954 50.9821C72.0673 50.3941 71.3405 50.0221 70.5548 49.9374C71.0023 49.8885 71.455 49.9345 71.8836 50.0723C72.3121 50.2101 72.7068 50.4366 73.0419 50.7371C73.377 51.0376 73.6451 51.4054 73.8286 51.8164C74.0121 52.2274 74.1069 52.6725 74.1069 53.1227C74.1069 53.5728 74.0121 54.0179 73.8286 54.4289C73.6451 54.8399 73.377 55.2077 73.0419 55.5082C72.7068 55.8087 72.3121 56.0353 71.8836 56.173C71.455 56.3108 71.0023 56.3568 70.5548 56.3079C71.3405 56.2233 72.0673 55.8512 72.5954 55.2633C73.1234 54.6753 73.4156 53.9129 73.4157 53.1227Z" fill="#54585F" class="cds-fill-neutral-7"/>
<path d="M69.4792 74.5442L66.0461 75.0019C66.0461 75.0019 64.444 87.5899 65.1307 88.5054C65.8173 89.4208 69.2504 93.0828 70.6236 92.1673C71.9968 91.2518 69.4792 74.5442 69.4792 74.5442Z" fill="#FE5000" class="cds-fill-accent-5"/>
</svg>
